<svg xmlns="http://www.w3.org/2000/svg" version="1.0" width="488.000000pt" height="557.000000pt" viewBox="0 0 488.000000 557.000000" preserveAspectRatio="xMidYMid meet">

<g transform="translate(0.000000,557.000000) scale(0.100000,-0.100000)" fill="#000000" stroke="none">
<path d="M620 5558 c0 -14 -54 -60 -82 -71 -25 -9 -22 -34 4 -43 l22 -7 -25 -18 c-14 -10 -52 -54 -84 -97 -35 -46 -79 -92 -108 -111 -51 -34 -57 -54 -15 -59 41 -5 58 -33 109 -184 29 -88 53 -144 62 -146 18 -4 36 -44 40 -90 2 -17 7 -35 10 -39 8 -7 -62 -56 -105 -74 -30 -12 -36 -33 -15 -46 8 -4 22 -20 31 -35 22 -34 17 -117 -20 -338 -59 -360 -75 -603 -55 -865 7 -89 16 -176 20 -195 7 -34 5 -36 -39 -57 -25 -13 -34 -20 -20 -17 25 7 25 6 6 -14 -10 -12 -22 -20 -26 -17 -18 11 -141 -150 -140 -182 1 -4 10 9 21 30 11 20 40 59 65 85 25 26 46 49 47 52 1 3 6 4 11 2 12 -4 46 28 46 45 0 7 4 13 9 13 10 0 24 -61 41 -175 5 -38 20 -120 32 -182 22 -112 22 -112 48 -105 14 4 46 7 71 6 l46 -1 -27 86 c-26 84 -55 252 -66 381 -2 36 -9 88 -14 115 -11 63 -12 496 0 635 9 118 27 210 41 210 4 0 16 -26 25 -57 33 -115 70 -176 153 -256 43 -41 108 -91 145 -112 91 -51 236 -107 237 -92 1 11 17 -32 23 -61 1 -7 8 -18 16 -25 10 -9 11 -9 6 1 -5 9 3 12 31 12 21 0 60 7 87 15 61 18 66 19 66 1 0 -16 -53 -60 -120 -98 -25 -15 -61 -44 -80 -65 -31 -33 -31 -35 -5 -12 56 47 70 53 34 14 -59 -64 -74 -101 -73 -180 0 -61 5 -79 36 -137 20 -38 32 -68 27 -68 -4 0 -11 5 -14 11 -4 6 -14 8 -22 5 -15 -6 -75 21 -128 57 l-30 20 28 -30 c16 -17 58 -43 93 -58 74 -31 78 -46 25 -82 -44 -30 -89 -29 -135 2 -48 33 -46 19 7 -32 81 -80 185 -104 274 -63 40 18 42 18 31 1 -17 -28 -49 -44 -98 -52 l-45 -6 48 -2 c52 -1 59 -14 32 -61 -19 -33 -19 -84 0 -120 17 -32 80 -70 117 -70 21 0 21 2 -8 19 -72 44 -94 113 -53 165 28 35 39 33 27 -6 -6 -22 -6 -42 1 -60 14 -37 68 -70 104 -64 l27 6 -22 -30 c-12 -17 -28 -30 -35 -30 -8 0 -11 -5 -8 -10 16 -25 -82 -133 -184 -204 -40 -28 -82 -57 -93 -65 -16 -12 -25 -12 -57 -1 -54 17 -79 9 -206 -67 -139 -84 -155 -98 -155 -139 0 -31 -9 -40 -141 -135 -159 -115 -181 -142 -161 -206 10 -33 9 -38 -9 -51 -12 -8 -49 -38 -82 -66 -34 -28 -87 -71 -118 -96 -32 -25 -80 -63 -107 -85 -28 -22 -51 -46 -51 -53 -1 -7 40 -59 91 -115 50 -56 145 -169 211 -252 127 -158 281 -328 459 -504 l106 -106 64 5 63 4 -60 6 c-33 3 -67 10 -75 15 -40 27 -261 265 -255 275 3 6 1 9 -5 8 -6 -2 -48 37 -93 85 -66 72 -78 90 -67 99 12 8 12 9 -2 4 -24 -7 -64 43 -46 57 10 6 9 8 -3 4 -12 -4 -33 15 -69 59 -29 36 -51 67 -48 69 2 2 15 8 28 14 14 5 18 10 10 10 -8 0 -22 -4 -30 -9 -10 -6 -21 -3 -37 12 -13 12 -23 26 -23 32 1 6 10 0 21 -13 11 -13 22 -21 26 -17 7 7 -37 42 -49 39 -5 -2 -151 153 -187 200 -12 15 -11 19 5 32 10 8 26 15 35 15 22 0 142 -128 263 -280 129 -162 216 -259 406 -454 169 -173 252 -242 306 -252 19 -3 36 -10 39 -14 3 -5 24 -11 48 -15 23 -4 53 -13 67 -20 14 -7 44 -17 65 -20 50 -9 87 -29 147 -77 25 -21 75 -48 110 -61 34 -13 111 -43 171 -65 l107 -42 527 0 527 0 -54 55 c-30 30 -48 55 -40 55 8 -1 48 -9 89 -19 55 -13 76 -23 85 -39 7 -13 15 -20 18 -17 3 4 9 -3 13 -14 3 -12 11 -21 16 -21 9 0 7 17 -8 58 -13 33 36 0 57 -39 6 -10 18 -19 27 -19 12 0 13 3 4 13 -6 8 -8 17 -4 20 3 4 1 7 -5 7 -7 0 -12 5 -12 10 0 15 26 12 40 -5 11 -13 15 -13 22 -3 6 9 8 4 4 -14 l-6 -28 273 0 273 0 100 34 c155 52 417 169 457 204 29 26 29 7 0 -23 -43 -43 -138 -104 -253 -163 -58 -30 -94 -51 -80 -47 58 18 204 86 291 137 117 68 142 75 175 49 68 -54 203 -75 314 -50 60 13 210 88 210 104 0 7 -39 -8 -100 -38 -93 -48 -105 -51 -189 -55 -87 -4 -181 14 -196 38 -3 5 11 2 32 -6 69 -29 177 -15 322 42 108 43 144 65 129 79 -5 5 -90 -24 -190 -64 -115 -46 -191 -57 -268 -40 -49 11 -64 19 -71 37 -15 39 -11 42 28 20 88 -52 194 -16 319 107 57 56 82 91 123 174 35 69 54 120 57 154 4 33 2 47 -3 39 -6 -8 -15 17 -26 75 -22 111 -22 108 9 88 l26 -17 -6 94 c-12 201 -15 283 -7 253 5 -16 9 263 10 620 l1 651 -107 11 c-60 7 -155 21 -213 33 -57 11 -110 18 -116 16 -7 -3 -27 -51 -44 -108 -17 -57 -42 -134 -55 -173 -26 -76 -79 -196 -70 -155 4 14 7 31 8 39 1 8 -49 34 -140 71 -78 31 -149 62 -156 68 -11 9 -17 6 -27 -13 -7 -14 -17 -25 -21 -25 -5 0 5 20 22 44 67 95 46 181 -69 284 -65 58 -110 126 -127 195 -7 25 -5 27 25 27 40 0 96 26 115 54 23 32 18 37 -17 16 -40 -24 -76 -25 -106 -4 -30 21 -28 31 11 38 98 20 137 132 85 246 -13 27 -26 50 -30 50 -7 0 -69 85 -88 121 -19 35 -5 19 46 -52 54 -77 58 -68 5 15 -68 108 -139 275 -142 333 -2 28 2 57 7 65 6 7 16 27 23 43 6 17 25 38 41 47 35 20 37 41 10 86 -31 50 -24 54 31 16 55 -37 101 -43 152 -21 26 11 23 12 -35 12 -45 0 -72 5 -92 18 -15 10 -25 21 -23 24 3 2 17 -3 32 -13 31 -20 124 -23 180 -4 48 16 40 21 -13 9 -52 -11 -110 2 -165 37 -54 35 -39 41 22 9 37 -20 59 -25 78 -20 30 7 88 66 96 97 5 19 3 18 -21 -4 -37 -35 -66 -48 -99 -47 -20 1 -22 3 -8 6 41 9 74 25 80 40 9 25 -2 26 -24 4 -12 -12 -30 -21 -41 -21 -32 0 -98 37 -116 65 -9 14 -20 23 -24 20 -7 -4 -43 32 -70 70 -8 11 5 2 28 -20 26 -24 46 -36 50 -29 4 5 50 42 102 81 187 139 291 278 340 455 53 192 3 375 -143 522 -167 168 -455 318 -719 375 -85 18 -131 21 -357 21 -254 0 -262 -1 -373 -29 -62 -16 -138 -39 -167 -51 -30 -11 -59 -19 -66 -16 -17 6 -186 -30 -276 -59 -129 -41 -491 -214 -629 -300 -19 -12 -71 -37 -115 -56 -165 -72 -366 -244 -494 -424 -36 -49 -95 -130 -132 -180 -70 -93 -149 -254 -149 -303 0 -15 -5 -34 -10 -42 -7 -11 -9 -7 -5 15 2 17 9 62 15 100 23 151 69 265 120 304 37 27 38 40 0 76 -39 38 -48 80 -22 114 10 14 22 36 26 47 3 12 18 26 31 32 14 6 25 17 25 23 0 6 13 29 28 52 16 23 49 74 75 114 25 39 55 74 67 78 26 8 25 17 -4 52 -13 15 -40 62 -61 103 -20 41 -55 99 -77 129 -31 41 -37 55 -27 62 10 6 -2 23 -45 69 -36 38 -56 66 -52 75 4 11 -2 15 -24 15 -17 0 -30 -5 -30 -12z m2170 -23 c0 -8 7 -15 15 -15 8 0 15 -7 15 -15 0 -8 5 -15 12 -15 28 0 -3 -10 -77 -25 -122 -25 -271 -78 -396 -141 -159 -79 -418 -226 -518 -293 -115 -77 -277 -217 -394 -342 -55 -57 -94 -94 -88 -82 6 12 16 25 21 28 6 4 20 25 31 48 21 41 137 185 151 186 4 1 58 42 120 92 62 50 177 134 256 186 78 53 142 98 142 100 0 2 -5 1 -12 -3 -7 -4 -8 -3 -4 5 4 7 13 10 19 8 12 -4 134 73 191 120 63 52 247 125 396 157 88 19 120 20 120 1z m-2154 -20 c-36 -19 -47 -19 -22 0 11 8 27 15 35 15 9 0 3 -7 -13 -15z m44 -13 c0 -4 -12 -8 -27 -9 -24 -1 -25 -1 -8 7 26 11 35 12 35 2z m-77 -39 c-7 -2 -19 -2 -25 0 -7 3 -2 5 12 5 14 0 19 -2 13 -5z m2442 -10 c4 -10 9 -31 11 -47 4 -28 3 -29 -16 -11 -22 20 -34 50 -25 65 9 15 22 12 30 -7z m-2460 -57 c-10 -14 -13 -26 -7 -26 7 0 5 -19 -5 -52 -17 -59 -29 -78 -49 -78 -10 0 -9 8 6 33 27 43 42 79 36 84 -3 3 -19 -22 -35 -56 -17 -34 -36 -61 -41 -61 -6 0 -10 2 -10 5 0 10 64 120 88 153 29 38 42 36 17 -2z m2455 -38 c0 -4 -8 -5 -17 -1 -16 6 -15 3 2 -16 11 -13 28 -27 39 -33 17 -9 19 -7 13 26 -3 19 -2 38 4 41 5 4 6 -2 2 -12 -6 -16 -5 -17 12 -3 17 14 17 13 10 -10 -5 -14 -9 -33 -9 -42 0 -9 -4 -14 -8 -12 -4 3 -8 -10 -8 -28 l0 -32 -17 24 c-9 14 -34 44 -55 67 -41 46 -44 54 -27 85 10 19 12 18 35 -13 13 -18 24 -36 24 -41z m64 63 c3 -5 -1 -11 -9 -14 -9 -4 -12 -1 -8 9 6 16 10 17 17 5z m-2456 -46 c12 -25 22 -51 22 -59 0 -21 20 -70 26 -64 7 7 -15 95 -33 133 l-14 30 21 -25 c11 -14 24 -30 29 -36 4 -5 14 -21 21 -35 12 -22 12 -23 -3 -10 -22 18 -22 0 -1 -40 8 -17 14 -38 12 -46 -3 -15 -5 -14 -21 2 -14 13 -21 15 -26 6 -6 -9 -23 -10 -60 -5 -47 6 -52 9 -47 28 3 12 13 54 22 94 9 39 19 72 23 72 3 0 16 -21 29 -45z m102 25 c0 -5 17 -33 37 -61 37 -52 104 -181 97 -188 -10 -10 -39 30 -76 103 -22 45 -51 95 -64 113 -28 37 -29 43 -9 43 8 0 15 -4 15 -10z m-252 -76 c-26 -49 -48 -78 -64 -84 -13 -5 -24 -11 -24 -13 0 -2 28 -1 61 1 37 3 91 -2 133 -11 39 -9 96 -21 127 -27 51 -10 179 -63 179 -74 0 -3 -24 6 -52 19 -84 38 -297 77 -399 73 l-86 -3 30 30 c17 17 34 30 38 30 4 0 11 4 16 9 5 5 3 6 -4 2 -7 -4 -13 -4 -13 -1 0 7 89 125 94 125 2 0 -14 -34 -36 -76z m3340 5 c226 -137 332 -274 353 -456 17 -150 -16 -281 -106 -419 -45 -69 -196 -221 -246 -247 l-34 -18 35 28 c119 96 207 198 269 314 60 112 74 172 69 298 -4 102 -6 110 -47 191 -56 109 -136 193 -271 281 -115 76 -128 92 -22 28z m-839 -27 c54 -50 63 -65 34 -56 -17 5 -17 5 0 -9 24 -20 21 -27 -13 -27 -16 0 -30 -5 -30 -11 0 -20 21 -49 35 -49 16 0 46 40 39 52 -3 4 0 8 5 8 6 0 14 -18 17 -40 6 -38 19 -58 30 -47 3 3 1 14 -4 24 -16 31 -23 73 -12 73 5 0 10 -8 10 -19 0 -10 7 -24 15 -31 13 -10 19 -10 35 5 24 22 25 29 4 49 -10 10 -24 14 -40 10 -27 -7 -31 5 -13 37 6 11 17 18 24 15 10 -3 12 0 8 11 -4 11 -2 14 5 9 7 -4 10 -17 6 -32 -3 -13 -2 -24 3 -24 6 0 15 -12 22 -26 10 -22 8 -32 -8 -60 -15 -26 -17 -34 -7 -34 11 0 10 -8 -5 -37 -11 -22 -19 -58 -19 -86 0 -43 2 -49 18 -45 12 4 24 -4 35 -24 16 -27 15 -28 -3 -18 -30 16 -47 2 -70 -55 -12 -29 -37 -77 -56 -106 -36 -57 -43 -96 -19 -105 8 -3 17 -16 21 -27 8 -25 18 -34 91 -83 59 -39 70 -41 90 -16 12 15 12 14 4 -8 -5 -14 -13 -47 -16 -73 -7 -56 -25 -58 -40 -6 -15 49 -24 61 -46 54 -10 -4 -19 -2 -19 3 0 5 -16 26 -36 47 -19 21 -49 62 -66 92 -23 41 -35 53 -54 53 -13 0 -24 5 -24 10 0 6 6 10 14 10 25 0 67 54 108 137 l40 83 -24 19 c-24 20 -40 19 -20 -1 14 -14 16 -38 3 -38 -9 0 -41 71 -41 90 0 18 24 10 52 -17 33 -31 43 -26 33 17 -8 38 -64 103 -103 119 -34 14 -92 118 -73 131 10 6 11 12 1 30 -10 18 -7 70 4 70 2 0 26 -21 55 -48z m-2229 -74 c-1 -17 -39 33 -40 51 0 8 9 3 20 -12 11 -14 20 -31 20 -39z m1280 8 c0 -2 -36 -27 -80 -55 -44 -28 -80 -47 -80 -43 0 4 35 28 78 54 79 49 82 51 82 44z m-240 -139 c0 -6 -224 -202 -240 -211 -15 -8 29 35 153 151 58 54 87 74 87 60z m-1247 -17 c19 0 24 -30 5 -31 -10 0 -10 -2 0 -6 17 -7 15 -23 -2 -23 -22 0 -29 19 -14 38 12 15 11 16 -4 4 -11 -9 -18 -10 -23 -2 -3 5 -10 10 -16 10 -5 0 0 -9 11 -20 11 -11 20 -24 20 -29 0 -5 7 -11 16 -13 9 -2 22 -18 30 -36 7 -18 9 -30 5 -27 -12 7 -73 -20 -64 -28 3 -4 2 -7 -3 -7 -6 0 -19 29 -30 64 -11 36 -17 63 -12 60 11 -7 10 -1 -2 32 -10 27 -10 27 27 20 21 -3 46 -6 56 -6z m152 -14 c18 -13 18 -14 -4 -50 -13 -21 -34 -39 -49 -42 -15 -4 -32 -11 -39 -16 -29 -23 -45 72 -16 104 19 22 81 24 108 4z m205 10 c0 -2 -8 -10 -17 -17 -16 -13 -17 -12 -4 4 13 16 21 21 21 13z m-421 -171 c16 -58 -3 -29 -27 40 -33 98 -33 102 -8 49 13 -28 29 -68 35 -89z m245 98 c-9 -21 -20 -50 -26 -65 -12 -33 -13 -33 -57 -9 -34 18 -34 18 -9 24 13 4 41 25 62 47 20 22 39 40 42 40 2 0 -3 -17 -12 -37z m24 -48 c-18 -36 -36 -65 -40 -65 -5 0 -2 12 5 28 8 15 22 44 32 65 9 20 21 37 26 37 5 0 -6 -29 -23 -65z m2428 50 c-8 -8 -18 -15 -22 -15 -3 0 -1 7 6 15 7 8 17 15 22 15 5 0 3 -7 -6 -15z m-799 -98 c7 -12 12 -16 13 -9 1 30 110 68 133 45 4 -3 -10 -21 -31 -39 -20 -18 -32 -33 -25 -34 18 0 -5 -58 -27 -70 -27 -14 -38 -12 -17 4 15 12 15 15 3 25 -12 10 -18 8 -31 -13 -20 -30 -13 -46 21 -46 13 0 29 -9 36 -20 7 -11 16 -20 19 -20 7 0 36 66 43 101 4 18 24 39 60 63 30 20 57 36 61 36 12 0 -5 -54 -26 -82 -26 -37 -8 -35 36 3 29 26 36 28 41 15 9 -24 -18 -58 -93 -120 -87 -71 -107 -93 -121 -135 -15 -42 -15 -41 0 -41 15 0 158 -81 158 -90 0 -13 -51 -30 -90 -30 -36 0 -43 4 -67 42 l-28 42 -3 -31 c-4 -37 15 -113 28 -113 5 0 10 13 12 30 2 23 6 27 18 20 12 -8 12 -19 0 -95 -8 -47 -19 -86 -25 -86 -5 -1 -17 20 -26 47 -13 40 -22 50 -60 68 -30 15 -43 27 -41 39 5 28 -33 20 -66 -13 -50 -50 -78 -19 -47 53 9 21 -10 23 -31 2 -17 -17 -60 -20 -69 -6 -3 5 11 15 30 21 19 6 38 16 41 22 4 6 -3 5 -16 -2 -38 -20 -33 -3 7 24 44 31 93 35 94 9 0 -10 3 -13 5 -7 4 9 14 9 40 1 34 -10 36 -13 30 -45 -4 -27 -1 -38 17 -53 38 -32 43 -24 33 46 -9 60 -12 65 -36 65 -14 0 -38 9 -53 19 -25 16 -43 18 -135 14 -95 -5 -110 -3 -129 13 -12 11 -24 30 -28 43 -6 20 -4 23 10 17 9 -3 29 -8 43 -11 20 -4 16 0 -13 14 -22 10 -49 29 -60 41 l-20 23 24 -8 c13 -4 54 -7 90 -6 64 1 69 -1 101 -34 37 -38 65 -47 56 -17 -3 9 -2 32 3 50 11 38 -4 51 -38 32 -17 -9 -29 -6 -66 16 -25 14 -45 29 -45 32 0 7 95 62 106 62 3 0 23 -18 45 -40 41 -41 59 -50 59 -27 -1 37 -14 55 -50 66 -22 6 -42 15 -45 20 -3 5 7 40 23 79 l27 69 40 -34 c22 -19 45 -44 52 -56z m604 1 c43 -24 48 -51 11 -56 -15 -2 -22 2 -22 13 0 9 -11 27 -25 40 -30 31 -15 32 36 3z m-2351 -12 c0 -3 -4 -8 -10 -11 -5 -3 -10 -1 -10 4 0 6 5 11 10 11 6 0 10 -2 10 -4z m2537 -22 c2 -5 -6 -10 -17 -11 -20 -2 -26 8 -13 21 9 8 26 3 30 -10z m-19 -36 c-3 -7 -13 -15 -24 -17 -16 -3 -17 -1 -5 13 16 19 34 21 29 4z m42 -33 c-11 -28 3 -49 27 -43 13 3 24 -2 32 -14 10 -17 9 -18 -16 -12 -28 7 -28 7 -9 -15 17 -19 15 -25 -5 -23 -4 1 -6 -6 -5 -16 2 -26 -46 -28 -68 -3 -15 17 -16 23 -6 36 10 12 10 15 -4 15 -9 0 -16 3 -16 8 0 9 42 37 52 34 4 -1 4 8 -1 20 -5 14 -4 30 3 40 14 23 27 2 16 -27z m-2588 20 c-2 -5 -10 -9 -18 -7 -9 2 -14 -6 -14 -21 0 -14 -6 -29 -13 -35 -10 -8 -16 0 -29 34 l-16 45 47 -3 c25 -2 45 -7 43 -13z m2376 -12 c28 -7 29 -29 2 -36 -13 -3 -28 2 -40 16 -25 26 -26 42 -2 32 9 -4 27 -10 40 -12z m-2314 -1 c2 -4 -4 -8 -15 -8 -10 0 -19 4 -19 8 0 4 6 8 14 8 8 0 17 -4 20 -8z m2486 -21 c0 -5 -7 -14 -15 -21 -13 -10 -15 -9 -15 9 0 12 6 21 15 21 8 0 15 -4 15 -9z m-1750 -15 c0 -2 -8 -10 -17 -17 -16 -13 -17 -12 -4 4 13 16 21 21 21 13z m1696 -31 c2 -16 -2 -25 -12 -25 -8 0 -14 -5 -14 -11 0 -6 7 -8 15 -5 20 7 29 -16 21 -50 -6 -21 -9 -24 -22 -14 -12 11 -12 14 3 27 17 13 16 14 -4 10 -38 -8 -46 15 -21 61 25 44 30 45 34 7z m-959 -31 c-3 -3 -12 -4 -19 -1 -8 3 -5 6 6 6 11 1 17 -2 13 -5z m-1207 -28 c0 -2 -8 -10 -17 -17 -16 -13 -17 -12 -4 4 13 16 21 21 21 13z m1775 -22 c-11 -8 -32 -18 -47 -21 -33 -7 -34 -10 -9 -37 10 -12 22 -32 26 -45 7 -23 6 -24 -36 -17 -24 4 -59 9 -78 10 -38 3 -61 27 -54 57 6 22 23 36 23 19 0 -6 5 -8 10 -5 6 3 10 11 10 16 0 6 -4 8 -9 4 -5 -3 -12 -1 -16 4 -11 19 32 30 115 30 78 0 83 -1 65 -15z m443 -45 c-1 -13 -7 -22 -13 -20 -5 1 -8 8 -6 15 2 6 3 20 3 30 -1 13 2 16 9 9 6 -6 9 -21 7 -34z m-2621 25 c-3 -3 -12 -4 -19 -1 -8 3 -5 6 6 6 11 1 17 -2 13 -5z m73 -14 c13 -9 13 -10 0 -9 -8 0 -24 4 -35 9 l-20 9 20 0 c11 0 27 -4 35 -9z m2614 -13 c8 -12 7 -20 -2 -29 -8 -7 -12 -8 -11 -3 2 6 -3 21 -10 34 -10 19 -10 22 0 19 7 -2 17 -12 23 -21z m-24 -40 c0 -33 -24 -12 -28 24 -3 32 -3 33 12 14 8 -11 16 -28 16 -38z m-2539 4 c20 -7 16 -8 -21 -7 -25 0 -60 -3 -79 -8 -28 -7 -33 -6 -28 7 4 10 0 13 -11 10 -9 -2 -35 0 -57 5 -38 9 -39 10 -16 19 25 10 162 -7 212 -26z m2 32 c-7 -2 -19 -2 -25 0 -7 3 -2 5 12 5 14 0 19 -2 13 -5z m-113 -133 c0 -7 -30 -7 -58 -1 -2 1 -1 5 2 10 7 10 56 2 56 -9z m176 -73 c-15 -19 -26 -38 -26 -43 -1 -12 -39 -62 -40 -50 0 19 74 126 87 126 2 0 -7 -15 -21 -33z m-161 13 c-3 -5 -13 -10 -21 -10 -8 0 -12 5 -9 10 3 6 13 10 21 10 8 0 12 -4 9 -10z m131 -126 c-30 -21 -42 -17 -15 5 13 11 26 17 29 14 3 -2 -4 -11 -14 -19z m-16 -48 c0 -2 -13 -9 -30 -15 -35 -12 -41 -5 -7 9 25 10 37 12 37 6z m3026 -43 c-3 -8 -2 -11 4 -8 9 6 35 -33 27 -41 -7 -8 -57 56 -57 73 0 13 3 13 15 3 9 -7 14 -19 11 -27z m-424 -42 c-2 -16 3 -39 12 -54 17 -25 26 -51 51 -142 10 -36 10 -55 2 -70 -9 -18 -9 -19 7 -6 21 17 17 60 -16 179 -11 41 -18 76 -15 78 5 5 50 -111 67 -174 17 -64 -19 -115 -89 -128 -20 -4 -45 -11 -56 -16 -17 -8 -18 -7 -5 4 20 17 50 80 50 105 0 21 -14 41 -44 63 -18 14 -19 13 -13 -20 7 -34 7 -35 -11 -14 -45 56 -174 76 -403 62 -42 -2 -66 -10 -99 -33 -58 -40 -141 -122 -163 -162 -17 -32 -17 -33 0 -26 10 4 32 17 48 29 17 12 54 32 83 43 46 18 59 20 98 10 24 -6 47 -15 50 -20 2 -4 -13 -17 -35 -29 -59 -29 -111 -79 -111 -104 0 -24 -46 -53 -95 -59 -23 -3 -20 -4 13 -6 25 0 58 7 81 19 41 20 51 18 51 -12 0 -20 16 -25 22 -6 3 8 18 5 49 -10 25 -12 51 -22 57 -22 7 0 12 -7 12 -15 0 -8 6 -15 14 -15 8 0 17 -4 21 -9 6 -11 -68 -6 -88 5 -9 5 -9 4 -1 -5 15 -16 91 -33 114 -26 9 3 22 -1 29 -9 18 -22 -26 -67 -74 -75 l-39 -6 23 -22 24 -22 40 22 c50 28 147 135 147 163 0 28 -10 36 -27 23 -7 -6 -13 -7 -13 -2 0 12 42 52 53 51 15 -1 97 36 97 44 0 4 5 8 10 8 18 0 10 -29 -12 -44 -12 -9 -20 -18 -17 -21 3 -2 15 2 26 10 16 11 22 25 21 55 -1 51 13 67 65 75 23 4 49 11 58 16 14 7 18 1 23 -32 4 -22 23 -73 43 -112 20 -40 53 -117 74 -172 20 -55 51 -129 68 -165 50 -104 37 -150 -48 -179 -49 -16 -66 -14 -107 14 -43 29 -105 33 -161 10 -19 -8 -41 -15 -49 -15 -19 0 -54 40 -55 64 -1 16 -2 17 -6 4 -7 -28 25 -76 63 -96 l36 -19 -38 -24 c-22 -13 -44 -24 -51 -24 -6 0 -20 -8 -31 -18 -19 -18 -21 -18 -30 0 -10 17 -12 16 -39 -9 -15 -15 -71 -47 -125 -71 -61 -29 -103 -55 -113 -71 -24 -36 -65 -260 -58 -311 12 -86 39 -146 138 -305 74 -119 93 -224 56 -306 -29 -63 -37 -59 -34 14 l2 67 -14 -54 c-7 -30 -17 -57 -22 -60 -28 -20 -136 -165 -157 -211 -26 -57 -33 -52 -16 11 6 23 39 67 85 118 l75 81 -1 58 c0 31 -5 66 -10 77 -6 14 -7 6 -3 -26 9 -71 -9 -117 -76 -192 -76 -86 -90 -114 -90 -177 0 -57 10 -81 48 -122 37 -40 14 -34 -30 8 -83 78 -114 139 -101 204 4 26 25 52 79 104 136 128 138 207 12 359 -67 80 -98 145 -98 204 0 51 42 148 84 193 60 64 70 95 61 185 -5 62 -9 74 -20 65 -11 -9 -12 -7 -8 10 3 11 20 32 37 45 38 30 26 33 -15 4 -16 -11 -29 -27 -29 -35 0 -22 -15 -17 -30 11 -7 13 -16 24 -19 23 -21 -2 -31 4 -31 20 0 14 -2 15 -10 2 -8 -13 -10 -12 -10 2 0 10 -4 17 -8 15 -5 -1 -22 14 -38 33 -16 19 -50 58 -75 85 -111 119 -196 261 -218 363 -14 67 -14 147 -1 173 6 11 12 47 14 80 3 61 31 117 55 111 6 -1 11 5 11 14 0 8 4 13 9 10 4 -3 16 3 26 14 10 11 22 17 28 13 6 -3 7 -1 3 5 -4 7 -3 12 2 12 9 0 53 106 73 178 15 50 0 46 229 63 96 7 211 15 255 19 44 4 134 8 201 8 l121 2 -5 -29z m98 11 c0 -4 10 -8 23 -9 12 -1 39 -21 61 -45 l39 -43 -26 45 c-15 25 -37 48 -49 52 -13 4 12 6 54 5 60 -2 82 -7 95 -20 17 -18 16 -18 -21 0 -28 13 -40 15 -43 6 -2 -7 -12 -9 -21 -6 -14 6 -15 4 -5 -9 7 -8 10 -18 6 -21 -3 -4 -2 -7 4 -7 6 0 16 -12 21 -27 25 -70 25 -70 2 -43 l-21 25 14 -30 c8 -16 18 -41 22 -53 6 -20 4 -23 -12 -19 -70 19 -76 19 -70 -5 4 -14 0 -29 -11 -41 -15 -17 -17 -14 -29 59 -7 42 -24 103 -37 135 -18 46 -21 59 -10 59 8 0 14 -4 14 -8z m-910 -40 c0 -5 -23 -19 -50 -32 -28 -13 -56 -30 -62 -37 -16 -20 0 -16 29 7 29 23 53 26 53 7 0 -21 -52 -97 -108 -158 -78 -86 -225 -157 -376 -183 -83 -15 -111 -13 -226 19 -18 5 -14 -1 15 -19 76 -48 125 -66 182 -66 73 0 62 -14 -15 -19 -7 -1 -11 -5 -7 -10 3 -6 -19 -8 -56 -6 -72 5 -92 -3 -109 -44 -9 -24 -10 -45 -1 -96 16 -88 31 -127 24 -58 -6 59 3 107 18 97 8 -4 9 1 4 15 -7 22 17 61 37 61 5 0 2 -7 -6 -16 -11 -10 -13 -21 -7 -32 4 -9 6 -22 4 -29 -3 -9 3 -9 24 -1 30 11 103 3 103 -11 0 -4 -16 -16 -35 -27 -49 -26 -78 -87 -65 -135 12 -43 34 -64 76 -73 17 -4 41 -18 53 -31 21 -26 65 -33 76 -14 4 6 -15 30 -41 55 l-48 44 18 54 c18 52 18 59 3 110 -11 40 -12 56 -4 59 7 2 2 9 -11 16 -27 15 -29 31 -2 24 34 -9 60 -60 38 -74 -6 -4 -6 -19 0 -40 6 -19 11 -28 11 -21 1 6 10 12 21 12 11 0 21 6 22 13 1 14 17 -145 21 -213 2 -50 22 -94 38 -84 6 4 4 13 -7 25 -9 11 -12 19 -6 19 6 0 9 7 6 15 -4 8 -3 15 0 15 4 0 12 -14 18 -31 11 -32 11 -32 23 -9 12 22 13 22 23 4 6 -10 12 -14 12 -9 1 6 5 1 9 -9 7 -17 11 -14 34 25 30 49 31 49 18 1 -13 -44 2 -40 19 6 16 46 25 27 11 -24 -15 -53 -5 -55 19 -3 19 40 20 41 16 12 -3 -18 0 -35 6 -39 6 -4 8 -3 5 2 -3 6 -2 16 3 24 6 10 10 3 15 -22 6 -34 -2 -93 -20 -143 -6 -17 -3 -16 15 5 20 23 19 20 -4 -25 l-26 -50 30 35 c17 19 30 38 30 42 0 4 5 8 10 8 26 0 -6 -79 -57 -141 l-27 -34 28 25 c16 14 41 42 57 63 25 35 28 36 34 17 4 -12 4 -38 1 -58 -6 -35 -5 -36 9 -18 8 11 16 31 16 45 l2 26 5 -25 c4 -24 5 -24 13 -5 6 14 8 6 4 -25 -3 -25 -13 -56 -21 -68 -9 -13 -13 -26 -11 -28 6 -6 44 46 56 77 8 19 10 20 10 6 1 -10 6 -15 11 -12 15 9 12 -40 -4 -80 -19 -45 -13 -44 19 2 14 21 25 32 25 26 0 -28 -45 -131 -73 -168 -48 -63 -53 -73 -16 -34 54 58 139 133 144 127 3 -3 -6 -27 -20 -54 l-25 -49 30 35 c16 19 30 29 30 23 0 -7 -5 -15 -10 -18 -6 -4 -24 -34 -41 -68 -16 -34 -24 -54 -16 -44 25 30 27 18 7 -33 -25 -63 -25 -74 -1 -35 21 35 59 71 66 63 3 -3 -4 -27 -16 -53 -30 -68 -27 -130 12 -218 18 -40 34 -94 36 -122 l3 -50 -19 40 c-12 24 -20 33 -20 22 -1 -15 -6 -13 -27 12 -14 17 -30 29 -35 25 -5 -3 -9 2 -9 11 0 9 -4 14 -8 11 -5 -3 -15 6 -22 19 -7 13 -16 23 -19 21 -10 -6 -72 81 -88 122 -12 33 -13 33 -9 7 2 -16 8 -39 12 -50 7 -18 6 -18 -9 -6 -9 7 -17 21 -18 30 0 12 -2 11 -8 -4 -8 -19 -8 -19 -19 2 -7 12 -12 30 -12 40 0 13 -3 14 -8 5 -11 -16 -29 22 -39 80 -5 37 -7 39 -15 19 -4 -13 -5 -28 -1 -33 3 -7 1 -8 -5 -4 -7 4 -12 17 -12 29 0 18 -2 19 -11 7 -8 -11 -9 -8 -4 14 5 26 4 28 -9 17 -13 -11 -16 -11 -16 1 0 8 5 19 11 25 6 6 9 17 7 24 -3 8 -11 -1 -21 -19 -9 -18 -13 -41 -10 -50 3 -9 -8 -1 -25 18 -33 37 -39 55 -22 65 5 3 15 16 21 28 l12 22 -25 -22 c-37 -34 -44 -28 -14 12 15 19 22 35 17 35 -6 0 -18 -11 -27 -25 -22 -34 -36 -32 -18 3 13 26 13 27 -14 32 -18 4 -23 8 -14 13 16 11 16 31 -1 24 -10 -4 -12 4 -11 29 2 19 -1 34 -7 34 -6 0 -7 6 -2 13 19 31 23 104 7 149 -16 47 -18 94 -4 103 5 3 7 12 3 20 -3 8 0 15 6 15 8 0 -18 61 -34 78 -2 2 0 -26 2 -61 5 -56 3 -67 -16 -86 -31 -31 -74 -27 -105 10 -14 17 -26 40 -26 51 0 12 -24 45 -56 77 -36 37 -70 85 -97 140 -39 78 -42 91 -42 164 0 74 2 80 29 103 15 14 26 27 23 30 -3 3 -63 7 -133 9 -123 3 -207 16 -218 34 -3 4 17 4 45 -2 46 -9 71 -5 57 9 -3 3 -29 11 -58 19 -80 21 -130 80 -145 170 l-6 40 26 -50 c31 -58 63 -95 82 -95 7 0 45 16 83 35 73 37 85 41 76 26 -8 -13 50 -96 87 -124 39 -29 111 -67 129 -67 7 0 -12 14 -42 31 -66 36 -133 100 -156 147 -16 34 -16 36 7 54 32 25 92 57 158 85 67 28 90 29 36 2 -80 -42 -175 -102 -175 -111 0 -6 15 0 33 12 72 48 259 132 367 164 63 19 124 38 135 42 16 6 14 0 -10 -25 -30 -32 -202 -129 -323 -181 -88 -38 -57 -38 53 1 106 37 202 94 275 164 52 49 61 53 130 64 41 7 81 14 88 16 22 8 13 -9 -28 -49 -22 -21 -37 -42 -35 -47 3 -4 -25 -29 -61 -56 -37 -26 -76 -56 -87 -67 -50 -47 -215 -105 -362 -125 l-70 -10 90 3 c105 4 230 41 356 107 59 31 87 53 125 100 26 33 49 67 50 76 5 34 124 105 124 75z m1375 -132 c3 -6 -1 -7 -9 -4 -18 7 -21 14 -7 14 6 0 13 -4 16 -10z m90 -30 c-3 -5 -12 -10 -18 -10 -7 0 -6 4 3 10 19 12 23 12 15 0z m-392 -17 c-7 -2 -21 -2 -30 0 -10 3 -4 5 12 5 17 0 24 -2 18 -5z m-3076 -45 c-3 -7 -5 -2 -5 12 0 14 2 19 5 13 2 -7 2 -19 0 -25z m2476 -45 c-7 -2 -19 -2 -25 0 -7 3 -2 5 12 5 14 0 19 -2 13 -5z m9 -40 l43 -18 -70 -11 c-65 -11 -146 -35 -187 -55 -29 -15 -21 7 15 37 38 33 103 63 134 64 13 0 42 -8 65 -17z m723 -59 c-8 -16 -15 -35 -15 -41 0 -7 -4 -13 -10 -13 -10 0 0 35 22 69 18 30 21 19 3 -15z m-750 -24 c3 -5 1 -10 -4 -10 -6 0 -11 5 -11 10 0 6 2 10 4 10 3 0 8 -4 11 -10z m-1575 -10 c20 -6 21 -8 5 -8 -11 0 -29 3 -40 8 -25 11 1 11 35 0z m1548 -19 c17 -38 37 -45 70 -24 l27 17 -19 -22 c-25 -29 -75 -37 -128 -20 -51 17 -54 31 -13 58 40 26 48 25 63 -9z m112 9 c0 -5 -5 -10 -11 -10 -5 0 -7 5 -4 10 3 6 8 10 11 10 2 0 4 -4 4 -10z m85 0 c3 -5 1 -10 -4 -10 -6 0 -11 5 -11 10 0 6 2 10 4 10 3 0 8 -4 11 -10z m-50 -20 c3 -5 2 -10 -4 -10 -5 0 -13 5 -16 10 -3 6 -2 10 4 10 5 0 13 -4 16 -10z m-1600 -51 c14 -22 86 -48 158 -56 42 -5 77 -6 77 -1 0 4 4 8 10 8 5 0 7 -6 4 -14 -7 -18 -49 -33 -117 -43 l-52 -7 38 -7 c21 -3 57 -3 80 2 50 9 61 4 23 -11 -58 -22 -147 -7 -207 33 -37 25 -64 66 -74 116 l-7 34 31 -22 c17 -12 33 -26 36 -32z m1575 37 c0 -2 -7 -7 -16 -10 -8 -3 -12 -2 -9 4 6 10 25 14 25 6z m524 -26 c6 -6 -5 -7 -30 -3 -52 8 -69 24 -19 18 22 -3 44 -10 49 -15z m86 -32 c0 -24 9 -76 20 -117 23 -85 24 -148 6 -206 -13 -38 -13 -36 -8 37 3 53 1 82 -7 92 -7 8 -10 20 -7 25 8 13 -4 62 -14 56 -4 -2 -16 7 -28 20 -13 15 -17 27 -11 31 6 3 16 -1 22 -10 10 -13 12 -4 12 49 0 36 3 65 8 65 4 0 7 -19 7 -42z m-660 2 c-8 -5 -17 -7 -19 -4 -3 3 1 9 9 14 8 5 17 7 19 4 3 -3 -1 -9 -9 -14z m-890 -4 c0 -2 -3 -12 -6 -20 -5 -13 -9 -14 -20 -5 -20 16 -17 29 6 29 11 0 20 -2 20 -4z m-220 -51 c0 -8 -6 -15 -14 -15 -17 0 -28 14 -19 24 12 12 33 6 33 -9z m-595 -5 c-3 -5 -18 -10 -33 -9 l-27 1 25 8 c35 11 42 11 35 0z m640 -10 c3 -5 -1 -10 -9 -10 -9 0 -16 5 -16 10 0 6 4 10 9 10 6 0 13 -4 16 -10z m-679 -37 c93 10 118 -3 48 -27 -81 -27 -135 -18 -133 24 0 8 3 10 5 4 3 -7 28 -7 80 -1z m185 -8 c19 -8 27 -14 19 -14 -14 0 -72 28 -59 29 4 0 22 -7 40 -15z m237 -142 c-66 -85 -71 -93 -61 -93 6 0 35 24 66 53 54 52 56 53 62 30 8 -32 -36 -94 -119 -166 -69 -62 -109 -128 -125 -207 -5 -25 -9 -35 -10 -22 -1 12 -7 23 -13 23 -7 1 -20 2 -28 3 -8 0 -23 23 -33 51 -21 61 -16 121 15 177 22 39 109 109 193 156 l40 23 -32 -28 c-17 -15 -34 -39 -38 -53 -5 -20 5 -14 45 30 28 30 56 66 62 80 6 15 12 20 15 12 3 -7 -15 -38 -39 -69z m295 52 c-18 -25 -33 -32 -33 -16 0 7 37 39 48 40 2 1 -5 -10 -15 -24z m-1487 -32 c-11 -11 -19 6 -11 24 8 17 8 17 12 0 3 -10 2 -21 -1 -24z m1129 7 c-3 -5 -41 -34 -85 -65 -43 -30 -91 -70 -106 -88 -28 -33 -68 -114 -99 -202 -18 -51 -75 -115 -101 -115 -9 0 -14 10 -14 28 0 48 27 196 43 234 32 77 166 195 237 209 54 10 132 10 125 -1z m-1125 -40 c0 -11 -4 -20 -9 -20 -5 0 -7 9 -4 20 3 11 7 20 9 20 2 0 4 -9 4 -20z m811 -65 c-29 -30 -63 -79 -77 -107 -13 -29 -21 -42 -18 -28 12 45 36 83 87 137 27 29 52 53 55 53 3 0 -19 -25 -47 -55z m480 -73 c-123 -97 -161 -153 -161 -235 0 -37 6 -53 30 -81 37 -42 69 -51 114 -32 61 25 70 58 62 221 -5 83 -4 136 2 130 18 -21 61 -132 68 -175 3 -25 16 -74 29 -110 12 -36 25 -85 29 -110 5 -41 3 -38 -19 25 -13 39 -24 78 -24 88 -1 25 -18 21 -25 -7 -9 -37 -79 -93 -137 -110 -57 -17 -108 -10 -156 21 -34 22 -63 84 -63 133 0 85 44 139 162 199 37 18 75 42 85 52 10 10 23 18 28 18 6 0 -5 -12 -24 -27z m2070 -70 c43 -68 40 -121 -8 -173 l-38 -39 -33 31 c-26 24 -30 34 -22 45 7 7 14 50 17 94 6 80 6 80 26 63 20 -18 20 -17 13 10 -9 39 8 27 45 -31z m-291 14 c0 -7 -101 -38 -106 -33 -3 3 16 12 43 20 55 17 63 19 63 13z m30 -11 c-7 -9 -15 -13 -19 -10 -3 3 1 10 9 15 21 14 24 12 10 -5z m-2217 -110 c4 -39 3 -54 -3 -45 -9 14 -15 119 -6 109 2 -2 6 -31 9 -64z m2092 -47 c19 -13 35 -26 35 -30 0 -8 -119 -22 -126 -15 -5 5 44 67 53 67 2 0 19 -10 38 -22z m415 -22 c0 -2 -8 -10 -17 -17 -16 -13 -17 -12 -4 4 13 16 21 21 21 13z m-3393 -133 c-3 -10 -5 -4 -5 12 0 17 2 24 5 18 2 -7 2 -21 0 -30z m2966 30 c-26 -5 -31 -23 -8 -23 8 0 15 -4 15 -10 0 -5 -5 -10 -11 -10 -5 0 -8 -4 -4 -9 8 -14 -4 -19 -73 -30 -51 -8 -71 -18 -112 -52 -28 -23 -50 -46 -50 -51 0 -4 12 -8 28 -8 37 -1 70 -30 70 -63 0 -15 -4 -27 -9 -27 -5 0 -10 -12 -10 -27 -1 -18 -3 -21 -6 -10 -2 9 -8 15 -13 12 -5 -3 -6 -13 -3 -23 6 -14 4 -15 -9 -4 -13 11 -17 9 -22 -13 -4 -14 -13 -25 -21 -25 -8 0 -15 -4 -15 -10 0 -17 -18 -11 -23 8 -3 10 -5 5 -7 -13 -1 -16 -4 -24 -7 -17 -2 6 -9 10 -14 7 -4 -3 -16 11 -25 32 -9 21 -18 32 -21 26 -7 -18 -23 -16 -23 3 0 10 -6 13 -18 10 -14 -5 -23 3 -37 28 -17 32 -18 36 -3 53 9 10 19 32 23 50 9 46 37 77 101 113 38 21 53 35 45 40 -10 5 -9 9 4 13 9 4 13 3 10 -3 -9 -15 -1 -12 51 15 40 22 59 25 133 24 47 -1 76 -4 64 -6z m-1443 -88 c0 -8 7 -18 15 -23 10 -5 23 -43 35 -100 22 -111 56 -176 127 -243 29 -28 51 -55 47 -60 -3 -6 4 -13 16 -16 12 -3 19 -11 16 -18 -2 -7 6 -28 20 -46 13 -18 24 -29 24 -25 0 12 32 -31 64 -86 15 -27 23 -48 19 -48 -4 0 -1 -5 7 -10 16 -10 22 -60 7 -60 -5 0 -6 12 -3 28 5 20 4 23 -4 12 -8 -12 -10 -13 -10 -1 0 8 -2 12 -5 9 -6 -6 44 -154 78 -230 14 -32 23 -58 21 -58 -3 0 -88 63 -187 139 -192 148 -372 309 -406 365 -49 79 -44 214 9 241 39 20 87 78 95 114 4 17 11 33 16 36 14 9 10 47 -6 69 -17 23 -20 40 -5 31 6 -3 10 -12 10 -20z m1650 6 c0 -21 -29 -93 -30 -74 0 6 5 24 11 40 8 23 7 30 -7 40 -16 12 -16 13 4 13 15 0 22 -6 22 -19z m-578 -26 c-22 -20 -44 -45 -47 -56 -4 -11 -9 -18 -11 -16 -13 13 27 75 57 90 48 23 48 22 1 -18z m-502 11 c0 -2 -8 -10 -17 -17 -16 -13 -17 -12 -4 4 13 16 21 21 21 13z m-513 -28 c-3 -8 -6 -5 -6 6 -1 11 2 17 5 13 3 -3 4 -12 1 -19z m1467 -14 c3 -8 2 -12 -4 -9 -6 3 -10 10 -10 16 0 14 7 11 14 -7z m-1439 -83 c3 -20 7 -49 10 -66 4 -25 3 -24 -10 8 -18 47 -32 157 -15 118 6 -13 13 -40 15 -60z m-587 9 c-15 -46 -54 -72 -102 -68 -30 2 -42 8 -44 21 -3 13 14 26 70 51 40 19 76 32 80 30 4 -2 2 -18 -4 -34z m42 11 c0 -6 -12 -23 -26 -38 l-25 -28 23 37 c24 40 28 44 28 29z m1464 -26 c-4 -8 -8 -15 -10 -15 -2 0 -4 7 -4 15 0 8 4 15 10 15 5 0 7 -7 4 -15z m593 -77 c-2 -13 -4 -5 -4 17 -1 22 1 32 4 23 2 -10 2 -28 0 -40z m-1427 -58 c44 -44 44 -51 0 -20 -30 21 -61 77 -59 107 0 10 5 3 10 -15 6 -18 28 -51 49 -72z m-405 80 c-8 -13 -66 -43 -71 -37 -4 4 44 33 74 46 2 0 0 -4 -3 -9z m2211 -112 c19 -36 18 -109 -2 -134 -14 -18 -15 -18 -8 6 18 61 -3 132 -57 196 l-33 39 43 -40 c23 -22 49 -52 57 -67z m-2516 70 c10 -6 2 -8 -24 -4 -22 3 -44 10 -50 16 -13 13 51 2 74 -12z m-167 -48 c7 -9 2 -5 -10 8 -13 13 -23 31 -22 40 0 11 4 9 10 -8 6 -13 15 -32 22 -40z m2091 -3 c61 -77 96 -154 96 -215 0 -44 -8 -68 -47 -142 -50 -97 -68 -113 -32 -31 25 59 23 88 -14 190 -13 36 -29 82 -35 101 -15 48 -27 168 -15 155 5 -5 26 -31 47 -58z m-1657 27 c-24 -13 -28 -20 -22 -42 10 -41 44 -88 147 -202 131 -145 415 -384 653 -551 44 -31 102 -79 128 -108 27 -28 74 -66 105 -83 31 -17 77 -50 102 -74 46 -44 120 -84 155 -83 11 0 -1 8 -27 18 -125 49 -196 159 -157 245 9 19 8 29 -5 47 -9 13 -16 30 -16 39 0 8 9 0 20 -18 11 -18 25 -30 30 -27 6 4 8 10 5 15 -3 4 6 30 19 57 14 26 35 75 47 108 12 33 38 84 58 114 30 45 36 64 39 121 5 84 -19 142 -98 240 -46 57 -100 147 -100 166 0 4 10 -6 23 -22 12 -16 40 -47 62 -69 23 -22 62 -65 89 -95 67 -77 39 -26 -41 73 -67 83 -57 78 55 -28 58 -54 144 -187 169 -261 11 -31 14 -67 11 -112 -9 -123 -65 -193 -211 -269 -106 -55 -130 -85 -124 -151 6 -55 49 -102 127 -139 43 -21 74 -27 145 -31 50 -2 94 -8 98 -12 16 -14 -43 -48 -95 -54 -34 -4 -105 1 -197 14 -80 11 -146 18 -148 16 -6 -5 17 -12 92 -26 33 -7 71 -19 85 -28 14 -9 58 -19 100 -22 70 -6 73 -7 47 -18 -34 -14 -169 -16 -215 -3 -18 6 -30 6 -27 1 10 -16 112 -33 171 -28 64 4 216 72 244 108 10 13 20 17 29 11 32 -20 -41 -108 -136 -165 -28 -16 -10 2 33 35 25 19 51 43 57 54 5 11 -10 2 -34 -20 -24 -22 -64 -48 -89 -59 -25 -10 -53 -22 -62 -27 -26 -13 -60 -11 -108 6 -24 8 -45 13 -47 11 -2 -2 12 -9 32 -16 20 -6 51 -28 70 -47 31 -31 75 -110 75 -132 0 -5 -23 -11 -51 -13 l-51 -3 -23 52 c-13 28 -28 54 -34 57 -6 4 -4 -6 4 -21 15 -28 20 -63 9 -63 -3 0 -14 5 -25 10 -13 7 -19 7 -19 0 0 -5 -13 -10 -30 -10 -16 0 -33 -7 -38 -15 -7 -13 -27 1 -108 72 -55 48 -117 103 -139 121 -50 42 -34 36 145 -52 74 -36 136 -66 138 -66 13 0 -17 25 -56 46 -26 14 -39 23 -29 20 10 -3 33 -6 50 -6 26 0 29 -2 17 -11 -12 -8 -9 -9 10 -4 14 4 48 12 75 19 44 11 48 14 30 23 -11 6 -69 20 -128 32 -80 16 -152 40 -281 95 -95 41 -198 88 -228 105 -30 17 -64 31 -76 31 -12 0 -22 4 -22 8 0 5 -48 60 -106 122 -105 113 -169 199 -80 108 25 -27 72 -61 103 -77 32 -15 105 -52 163 -81 131 -66 392 -182 397 -177 4 5 -5 9 -192 95 -217 99 -286 137 -377 208 -48 38 -85 70 -84 72 2 1 52 -21 112 -49 111 -52 206 -91 210 -86 11 10 -27 31 -131 72 -66 26 -163 69 -216 95 -102 52 -101 51 -196 205 -27 44 -58 94 -68 110 l-19 30 30 -26 c35 -32 154 -112 154 -104 0 2 -33 29 -72 58 -40 30 -90 72 -111 93 -46 47 -111 173 -127 247 -11 48 -10 61 7 113 21 64 45 84 98 83 l30 0 -28 -15z m468 -92 c-7 -7 -33 17 -57 52 -19 28 -17 27 20 -8 23 -22 40 -42 37 -44z m1745 21 c0 -22 -8 -14 -19 20 -10 29 -9 30 4 13 8 -11 15 -26 15 -33z m-108 -57 c21 -33 38 -66 38 -75 0 -9 -9 2 -21 24 -11 22 -26 45 -33 50 -7 6 -16 20 -20 33 -4 12 -11 22 -16 22 -4 0 -11 7 -14 16 -12 32 26 -8 66 -70z m-2233 -88 c75 -165 266 -474 386 -623 64 -80 283 -314 518 -553 88 -89 157 -162 154 -162 -29 0 -131 62 -208 126 -52 44 -140 117 -197 163 -142 115 -206 182 -339 358 -199 266 -395 602 -427 735 -6 24 -3 28 26 37 18 5 36 10 39 10 3 1 25 -41 48 -91z m2331 41 c-7 -16 -16 -29 -21 -29 -12 0 -12 4 8 45 20 42 31 28 13 -16z m-1649 -46 c13 -16 12 -17 -3 -4 -10 7 -18 15 -18 17 0 8 8 3 21 -13z m-971 -31 c0 -5 -12 -14 -27 -21 l-28 -12 25 21 c29 22 30 23 30 12z m2700 -1 c0 -6 -9 -9 -19 -8 -11 0 -17 5 -15 9 7 11 34 10 34 -1z m-789 -50 c30 -17 70 -47 89 -67 l35 -38 -40 31 c-22 17 -58 40 -80 51 -49 25 -84 51 -69 52 6 0 35 -13 65 -29z m699 19 c0 -5 -8 -10 -17 -10 -15 0 -16 2 -3 10 19 12 20 12 20 0z m-2740 -55 c-7 -9 -27 -25 -44 -36 -25 -17 -24 -14 8 15 41 38 58 47 36 21z m2053 -11 c61 -31 96 -60 108 -91 14 -37 13 -233 -1 -281 -8 -26 -34 -64 -67 -100 -44 -47 -51 -51 -38 -25 8 17 19 35 25 38 6 3 17 21 26 38 14 27 9 24 -27 -17 -118 -132 -140 -200 -83 -261 l24 -26 -22 7 c-34 10 -65 36 -77 62 -17 36 -13 104 9 145 24 44 24 47 6 47 -23 0 -84 -63 -92 -94 -4 -17 0 -43 9 -68 9 -22 14 -45 10 -51 -3 -6 -1 -7 5 -3 7 4 12 3 12 -3 0 -6 12 -17 28 -25 40 -22 17 -19 -27 4 -46 23 -91 74 -91 101 0 55 64 132 138 165 48 21 87 77 103 150 11 47 10 65 -7 134 -11 44 -17 80 -14 80 3 0 26 -31 50 -69 25 -38 46 -68 48 -66 2 2 -24 56 -58 119 -34 64 -59 116 -55 116 3 0 29 -12 58 -26z m805 1 c-3 -3 -9 2 -12 12 -6 14 -5 15 5 6 7 -7 10 -15 7 -18z m-100 -10 c-3 -3 -9 2 -12 12 -6 14 -5 15 5 6 7 -7 10 -15 7 -18z m326 9 c9 -3 16 -11 16 -17 0 -6 -3 -7 -7 -4 -3 4 -12 2 -18 -3 -9 -8 -14 -5 -18 10 -5 21 1 24 27 14z m6 -44 c0 -5 -5 -10 -11 -10 -5 0 -7 5 -4 10 3 6 8 10 11 10 2 0 4 -4 4 -10z m-789 -45 c5 4 6 -1 3 -9 -3 -9 -9 -14 -13 -12 -12 8 -3 -66 9 -78 10 -9 10 -6 0 13 -8 15 -8 21 -1 17 6 -4 16 -17 22 -29 7 -12 8 -19 4 -15 -4 4 -13 2 -19 -5 -6 -7 -10 -11 -9 -9 1 2 -6 13 -16 23 -10 11 -18 34 -19 51 -1 35 19 81 26 60 2 -6 8 -10 13 -7z m-1036 -13 c-3 -3 -11 0 -18 7 -9 10 -8 11 6 5 10 -3 15 -9 12 -12z m1550 -11 c-3 -12 -10 -21 -15 -21 -5 0 -4 11 2 25 13 29 23 26 13 -4z m49 6 c-3 -9 28 -28 87 -56 50 -23 89 -45 86 -47 -3 -3 -48 16 -101 41 -88 43 -108 60 -90 78 10 10 24 -2 18 -16z m171 13 c3 -5 1 -10 -4 -10 -6 0 -11 5 -11 10 0 6 2 10 4 10 3 0 8 -4 11 -10z m-625 -40 c5 0 11 6 14 13 3 6 3 0 0 -15 -4 -17 -2 -28 5 -28 6 0 11 -8 11 -17 0 -30 -39 17 -43 52 -3 17 -2 22 0 13 2 -10 8 -18 13 -18z m78 28 c-2 -7 3 -12 10 -10 6 1 12 -2 12 -8 0 -5 -4 -10 -9 -10 -13 0 -32 26 -24 33 10 10 13 8 11 -5z m697 -9 c28 -19 28 -20 5 -14 -14 4 -31 12 -37 17 -9 8 -13 6 -13 -5 0 -8 -7 -20 -15 -27 -18 -15 -18 -10 -5 24 12 31 26 32 65 5z m-165 -31 c0 -4 -4 -8 -9 -8 -6 0 -12 4 -15 8 -3 5 1 9 9 9 8 0 15 -4 15 -9z m160 8 c0 -3 -4 -8 -10 -11 -5 -3 -10 -1 -10 4 0 6 5 11 10 11 6 0 10 -2 10 -4z m-899 -114 c26 -53 22 -115 -10 -160 -12 -17 -53 -53 -91 -81 -38 -28 -76 -64 -85 -81 -9 -16 -18 -30 -21 -30 -3 0 -2 5 2 12 4 7 3 8 -4 4 -6 -4 -9 -13 -6 -20 3 -8 1 -17 -5 -21 -6 -3 -14 1 -17 9 -7 18 39 86 91 136 70 66 93 140 76 237 -6 33 -8 68 -5 78 6 15 10 13 30 -12 13 -15 33 -47 45 -71z m234 87 c4 -6 17 -14 29 -19 14 -6 16 -9 5 -9 -9 -1 -26 8 -39 19 -13 11 -18 20 -12 20 6 0 14 -5 17 -11z m245 -9 c-35 -24 -54 -31 -30 -11 14 11 30 21 35 21 6 0 3 -5 -5 -10z m342 -22 c-8 -8 -9 -4 -5 13 4 13 8 18 11 10 2 -7 -1 -18 -6 -23z m-34 -3 c-1 -14 -6 -25 -11 -25 -5 0 -6 7 -3 16 3 9 6 20 6 25 0 5 2 9 5 9 3 0 4 -11 3 -25z m-293 5 c-3 -5 -16 -15 -28 -21 -19 -9 -19 -8 3 10 28 23 34 26 25 11z m-1390 -60 c-18 -19 -18 -20 1 -125 9 -53 -14 -5 -27 54 -11 52 -10 56 11 73 29 24 38 23 15 -2z m945 14 c0 -8 -19 -13 -24 -6 -3 5 1 9 9 9 8 0 15 -2 15 -3z m24 -206 c-16 -22 -39 -44 -51 -49 -63 -24 -77 -32 -66 -36 6 -2 27 3 47 11 45 19 46 14 3 -12 -22 -13 -39 -17 -49 -11 -11 6 -24 2 -41 -11 -14 -11 -31 -20 -39 -19 -7 0 -4 4 7 9 11 4 49 32 85 61 36 29 58 44 51 33 -14 -18 -14 -18 3 -3 9 9 18 25 19 37 0 11 10 23 20 26 10 2 21 15 25 28 l7 23 3 -23 c2 -14 -8 -40 -24 -64z m832 67 l50 -15 -3 -47 c-1 -27 -2 -56 -2 -66 -1 -15 -7 -17 -28 -13 -16 3 -108 8 -206 11 -101 3 -188 11 -203 17 -36 16 -57 60 -44 92 10 28 -9 26 306 34 48 1 100 -4 130 -13z m-1579 -37 c-3 -8 -6 -5 -6 6 -1 11 2 17 5 13 3 -3 4 -12 1 -19z m-1282 -8 c3 -5 -3 -10 -14 -10 -12 0 -20 -6 -18 -12 1 -8 -10 -14 -25 -16 -19 -2 -28 1 -28 11 0 26 72 48 85 27z m1066 -37 c13 -16 12 -17 -3 -4 -10 7 -18 15 -18 17 0 8 8 3 21 -13z m2117 -167 c94 -47 112 -66 111 -113 l-1 -38 -7 37 c-10 51 -22 62 -110 108 -55 29 -97 61 -151 117 l-75 77 80 -75 c52 -50 105 -89 153 -113z m-3288 155 c0 -4 -20 -22 -45 -41 -31 -23 -45 -41 -45 -57 0 -15 -8 -26 -22 -32 -66 -24 -93 -30 -101 -22 -13 13 1 31 24 31 11 0 32 12 47 26 18 18 21 25 10 21 -30 -10 -20 11 12 28 17 9 30 20 30 26 0 7 11 9 25 7 13 -3 22 -2 19 3 -2 4 3 12 13 18 18 9 33 6 33 -8z m50 -31 c-12 -22 -86 -80 -103 -80 -17 0 3 51 31 76 15 13 40 24 55 24 25 0 27 -2 17 -20z m1498 0 c-7 -11 -17 -20 -22 -20 -5 0 -1 9 9 20 10 11 20 20 22 20 2 0 -2 -9 -9 -20z m612 6 c0 -2 -12 -11 -27 -20 l-28 -17 24 20 c23 21 31 25 31 17z m935 -14 c-3 -3 -11 0 -18 7 -9 10 -8 11 6 5 10 -3 15 -9 12 -12z m-3304 -19 c13 -16 12 -17 -3 -4 -10 7 -18 15 -18 17 0 8 8 3 21 -13z m3319 -3 c0 -5 -2 -10 -4 -10 -3 0 -8 5 -11 10 -3 6 -1 10 4 10 6 0 11 -4 11 -10z m-883 -6 c-3 -3 -12 -4 -19 -1 -8 3 -5 6 6 6 11 1 17 -2 13 -5z m-33 -39 c5 -22 4 -26 -4 -15 -5 8 -10 24 -10 34 0 26 6 18 14 -19z m-114 21 c0 -2 -8 -10 -17 -17 -16 -13 -17 -12 -4 4 13 16 21 21 21 13z m993 -92 c81 -52 167 -102 191 -110 64 -22 96 -55 96 -99 0 -19 5 -35 10 -35 6 0 10 -12 10 -27 0 -22 -2 -25 -10 -13 -5 8 -10 11 -10 5 0 -5 -4 -4 -9 4 -7 10 -22 12 -65 7 -57 -8 -72 -20 -37 -31 33 -10 71 -53 71 -80 0 -14 -7 -40 -16 -57 -16 -32 -29 -33 -101 -12 -31 9 -30 -13 2 -38 49 -38 18 -138 -43 -138 -26 0 -27 -2 -24 -38 5 -54 -21 -83 -76 -84 -36 0 -42 -3 -42 -22 0 -11 4 -27 9 -35 12 -19 -4 -59 -37 -94 -24 -26 -25 -28 -7 -25 19 3 20 -2 16 -122 -2 -69 -5 -127 -7 -129 -2 -3 -23 9 -46 25 -53 38 -72 87 -63 169 9 91 15 105 39 106 21 0 21 0 -1 11 -30 15 -29 44 2 61 25 12 23 14 -57 50 -131 58 -136 59 -266 60 -104 0 -124 3 -138 18 -30 33 -11 65 54 89 83 32 162 40 256 29 225 -28 223 -28 210 5 -7 19 -20 21 -27 4 -3 -7 -6 -3 -6 10 -1 13 -6 32 -12 43 -9 18 -8 19 18 12 41 -10 76 -9 80 2 2 6 -52 30 -119 55 -68 24 -165 58 -215 76 -70 25 -93 30 -93 19 0 -21 -79 -84 -119 -95 -37 -10 -51 -2 -51 32 0 19 126 167 164 191 51 34 149 21 355 -44 69 -22 139 -38 156 -37 l30 4 -30 8 c-62 16 -62 16 -36 35 l24 18 -99 66 c-133 88 -139 90 -232 73 -111 -21 -242 -26 -235 -9 6 15 -13 18 -22 3 -15 -25 -75 23 -75 60 0 34 14 46 65 56 22 4 58 13 80 21 56 20 187 40 271 42 l71 1 146 -96z m-3983 72 c0 -2 -17 -16 -37 -31 l-38 -26 35 30 c34 31 40 35 40 27z m2836 -38 c-9 -12 -16 -19 -16 -15 0 11 24 47 28 42 2 -2 -3 -14 -12 -27z m294 -4 c0 -8 -19 -13 -24 -6 -3 5 1 9 9 9 8 0 15 -2 15 -3z m-3210 -18 c0 -2 -8 -10 -17 -17 -16 -13 -17 -12 -4 4 13 16 21 21 21 13z m4146 -37 c3 -6 -5 -3 -20 6 -14 10 -26 19 -26 22 0 7 39 -17 46 -28z m89 -49 c3 -6 -1 -7 -9 -4 -18 7 -21 14 -7 14 6 0 13 -4 16 -10z m-2923 -38 c-11 -15 -25 -43 -30 -62 -6 -19 -11 -29 -11 -22 -2 22 -31 13 -41 -13 -5 -14 -12 -25 -16 -25 -3 0 -3 7 0 16 4 10 -1 22 -11 30 -17 13 -14 17 32 58 28 25 60 45 73 46 l23 0 -19 -28z m1442 19 c4 -5 -3 -7 -14 -4 -23 6 -26 13 -6 13 8 0 17 -4 20 -9z m-1534 -20 c0 -15 -29 -33 -41 -25 -8 5 -9 3 -4 -6 5 -8 3 -11 -5 -8 -23 7 -22 24 2 36 29 13 48 15 48 3z m140 -6 c0 -22 -4 -30 -12 -27 -5 1 -8 -2 -8 -8 0 -5 -4 -10 -10 -10 -14 0 -13 33 2 48 16 16 28 15 28 -3z m1530 -11 c0 -2 -9 0 -20 6 -11 6 -20 13 -20 16 0 2 9 0 20 -6 11 -6 20 -13 20 -16z m1435 16 c3 -6 -1 -7 -9 -4 -18 7 -21 14 -7 14 6 0 13 -4 16 -10z m55 -31 c0 7 5 9 11 5 8 -5 8 -9 -1 -14 -9 -5 -9 -9 -1 -14 6 -4 11 -15 10 -24 0 -14 -2 -14 -6 -2 -3 8 -17 28 -32 45 -20 23 -21 25 -3 11 13 -12 22 -14 22 -7z m-3253 -33 c-15 -6 -27 -13 -27 -18 0 -4 -4 -8 -10 -8 -16 0 -12 14 11 39 17 18 23 20 36 9 14 -11 13 -14 -10 -22z m2380 28 c-3 -3 -12 -4 -19 -1 -8 3 -5 6 6 6 11 1 17 -2 13 -5z m-2322 -54 c4 -12 1 -28 -6 -36 -19 -23 -68 -46 -87 -41 -12 3 -11 5 5 6 16 1 21 6 17 16 -4 8 -1 15 5 15 6 0 11 5 11 10 0 7 -6 7 -19 0 -11 -5 -27 -7 -35 -4 -9 4 -22 1 -30 -5 -13 -11 -26 -5 -26 13 0 6 20 12 44 13 24 1 57 8 73 17 37 20 40 20 48 -4z m-84 -118 c-7 -2 -18 1 -23 6 -8 8 -4 9 13 5 13 -4 18 -8 10 -11z m3253 2 c5 -14 4 -15 -9 -4 -17 14 -19 20 -6 20 5 0 12 -7 15 -16z m43 -56 c-2 -13 -4 -3 -4 22 0 25 2 35 4 23 2 -13 2 -33 0 -45z m-1417 -32 c0 -25 -5 -35 -20 -39 -11 -3 -22 -13 -26 -24 -21 -67 -40 -66 -54 4 -7 32 -17 64 -22 71 -8 9 -2 12 23 13 19 1 45 4 59 8 34 11 40 5 40 -33z m-152 14 c7 -11 9 -20 4 -20 -10 0 -32 22 -32 32 0 15 15 8 28 -12z m-35 -8 c9 -10 20 -40 23 -65 7 -45 6 -47 -19 -47 -16 0 -27 7 -30 18 -3 9 -6 -1 -7 -23 -1 -32 -3 -36 -10 -20 l-9 20 -1 -20 c-1 -11 -8 9 -16 44 -7 36 -18 69 -24 75 -17 17 -11 25 23 29 17 2 37 5 43 5 6 1 18 -6 27 -16z m57 -71 c-1 -10 -6 -7 -15 9 -19 33 -18 50 0 26 8 -11 15 -27 15 -35z m-1240 9 c0 -5 -2 -10 -4 -10 -3 0 -8 5 -11 10 -3 6 -1 10 4 10 6 0 11 -4 11 -10z m114 -109 c-5 -5 -86 68 -98 88 -5 9 15 -6 46 -34 30 -27 54 -52 52 -54z m763 17 c-15 -9 -33 -11 -24 -1 4 3 -1 12 -11 19 -14 11 -12 12 15 2 22 -8 28 -15 20 -20z m49 20 c-12 -7 -21 -7 -28 0 -6 6 0 10 18 10 23 0 24 -2 10 -10z m260 -15 c-10 -10 -19 5 -10 18 6 11 8 11 12 0 2 -7 1 -15 -2 -18z m-103 -60 c3 -31 4 -60 1 -64 -3 -5 -22 1 -43 12 -27 14 -43 31 -54 59 -17 44 -14 47 54 49 l36 1 6 -57z m-104 3 c11 -24 11 -30 0 -37 -8 -5 -21 -6 -29 -3 -8 3 -32 8 -52 11 -21 3 -38 9 -38 12 0 10 83 50 95 47 6 -1 16 -15 24 -30z m-59 -50 c0 -3 -4 -8 -10 -11 -5 -3 -10 -1 -10 4 0 6 5 11 10 11 6 0 10 -2 10 -4z m76 -18 c-10 -6 -20 -7 -24 -3 -9 8 20 25 31 18 5 -3 2 -10 -7 -15z m1644 -1 c0 -2 -10 -12 -22 -23 l-23 -19 19 23 c18 21 26 27 26 19z m-2274 -28 c34 -21 38 -44 6 -32 -28 10 -62 35 -62 44 0 15 21 10 56 -12z m2291 -21 c-3 -7 -5 -2 -5 12 0 14 2 19 5 13 2 -7 2 -19 0 -25z m-2091 -20 c4 -5 0 -17 -9 -25 -17 -17 -50 -5 -66 25 -8 15 -5 17 30 14 21 -2 42 -9 45 -14z m-96 -18 c0 -5 -8 -10 -17 -10 -15 0 -16 2 -3 10 19 12 20 12 20 0z m390 -2 c0 -5 -4 -8 -9 -8 -5 0 -28 -16 -51 -35 -55 -46 -89 -46 -138 0 -26 25 -33 37 -25 43 16 10 223 10 223 0z m425 -4 c20 -8 34 -18 31 -21 -3 -3 -1 -12 5 -20 8 -9 8 -13 1 -13 -6 0 -18 9 -26 21 -8 12 -19 18 -24 15 -6 -3 -12 -1 -14 6 -3 8 -9 8 -24 0 -16 -10 -17 -11 -2 -12 27 0 69 -22 65 -34 -2 -6 2 -17 10 -24 17 -17 17 -36 0 -29 -9 3 -13 -3 -13 -17 1 -14 -6 -22 -20 -24 -24 -3 -74 33 -74 54 0 8 -7 14 -15 14 -8 0 -15 5 -15 10 0 6 5 10 11 10 6 0 9 7 5 15 -3 8 1 20 8 27 7 7 11 19 8 26 -5 17 38 15 83 -4z m-185 -9 c0 -5 -83 -85 -88 -85 -3 0 12 19 33 41 25 26 33 39 21 35 -16 -5 -17 -4 -7 8 10 12 41 13 41 1z m-90 -3 c0 -2 -11 -19 -25 -39 -18 -27 -26 -33 -30 -22 -10 26 12 68 35 66 11 -1 20 -3 20 -5z m20 -24 c-6 -7 -17 -22 -25 -33 l-15 -20 7 20 c11 33 37 69 41 57 2 -6 -2 -17 -8 -24z m1254 23 c19 -7 19 -8 1 -15 -12 -4 -24 -1 -34 9 -13 13 -13 15 -1 14 8 0 24 -4 34 -8z m-864 -11 c0 -5 -2 -10 -4 -10 -3 0 -8 5 -11 10 -3 6 -1 10 4 10 6 0 11 -4 11 -10z m-255 -10 c9 -14 -19 -56 -45 -70 -17 -9 -20 -8 -20 8 0 21 36 72 50 72 5 0 12 -5 15 -10z m199 -5 c-4 -8 -10 -15 -15 -15 -5 0 -9 7 -9 15 0 8 7 15 15 15 9 0 12 -6 9 -15z m46 -16 c0 -5 -7 -9 -15 -9 -9 0 -15 -9 -15 -24 0 -19 4 -23 20 -19 15 4 20 0 20 -15 0 -12 -4 -24 -10 -27 -5 -3 -10 1 -10 11 0 14 -2 14 -16 3 -11 -9 -14 -23 -11 -44 7 -44 -9 -67 -18 -26 -3 17 -11 33 -16 36 -5 4 -9 15 -9 27 0 17 2 18 15 8 9 -7 19 -10 23 -6 4 4 -2 14 -12 22 -11 8 -14 14 -8 14 7 0 12 7 12 15 0 8 -6 12 -14 9 -8 -3 -17 -1 -21 5 -4 7 5 11 24 11 25 0 31 4 31 21 0 18 2 19 15 9 8 -7 15 -16 15 -21z m-330 -18 c-5 -11 -10 -27 -10 -36 0 -10 -11 -26 -25 -37 -14 -11 -25 -25 -25 -32 0 -7 11 -18 25 -24 15 -7 25 -8 25 -2 0 6 -4 10 -10 10 -18 0 -11 29 9 40 21 10 20 12 37 -52 5 -19 4 -21 -7 -11 -10 10 -17 9 -35 -8 -12 -12 -28 -18 -34 -14 -38 24 -28 132 11 122 12 -3 19 0 19 10 0 8 -5 11 -12 7 -7 -4 -2 5 11 19 29 32 36 34 21 8z m104 -36 c12 -13 13 -20 4 -34 -6 -11 -18 -17 -25 -14 -9 4 -13 -5 -13 -32 0 -31 -2 -35 -14 -26 -8 6 -16 28 -18 47 -3 29 1 39 20 55 30 23 27 23 46 4z m476 -18 c0 -16 -13 -30 -45 -49 -56 -34 -60 -28 -5 7 25 16 40 33 40 45 0 11 2 20 5 20 3 0 5 -10 5 -23z m-2242 -202 c-3 -37 -13 -64 -37 -98 -17 -26 -36 -47 -41 -47 -5 0 -19 21 -32 48 l-22 47 -4 -33 c-4 -41 -20 -37 -45 9 -20 38 -66 83 -75 74 -3 -3 9 -17 26 -32 18 -14 32 -33 32 -41 0 -8 8 -21 18 -28 16 -11 15 -13 -11 -23 -23 -9 -36 -7 -75 13 -66 34 -85 71 -92 179 -3 48 -2 87 1 87 3 0 14 -10 25 -21 10 -12 46 -40 79 -62 80 -53 105 -77 105 -99 0 -10 5 -18 11 -18 7 0 8 6 3 18 -19 41 -9 86 36 149 l44 63 29 -67 c23 -53 28 -76 25 -118z m1821 168 c17 -10 31 -21 31 -25 0 -5 5 -8 11 -8 5 0 7 5 4 10 -10 17 4 11 25 -10 21 -21 27 -50 11 -50 -5 0 -11 7 -15 15 -3 8 -12 15 -20 15 -7 0 -16 7 -20 15 -11 30 -21 14 -17 -27 3 -39 2 -41 -13 -29 -12 10 -14 17 -5 27 9 11 7 14 -9 14 -21 0 -32 18 -32 51 0 24 10 24 49 2z m78 -15 c-3 -7 -5 -2 -5 12 0 14 2 19 5 13 2 -7 2 -19 0 -25z m88 2 c3 -5 1 -10 -4 -10 -6 0 -11 5 -11 10 0 6 2 10 4 10 3 0 8 -4 11 -10z m260 -57 c-10 -84 -44 -216 -64 -249 -16 -26 -106 -82 -116 -72 -6 5 40 210 59 265 20 58 74 112 115 113 10 0 12 -12 6 -57z m-756 26 c-10 -20 -9 -21 10 -16 18 4 20 3 11 -8 -6 -8 -21 -12 -33 -9 -71 14 -95 15 -101 5 -5 -7 3 -11 22 -11 18 0 37 -10 52 -25 13 -14 18 -25 12 -25 -7 0 -12 4 -12 8 0 5 -23 9 -51 11 -45 2 -112 19 -82 20 7 1 10 8 7 16 -4 11 1 15 17 16 13 0 44 9 69 19 25 10 55 19 68 19 20 1 21 -1 11 -20z m283 -24 c2 -13 -3 -20 -12 -20 -10 0 -16 12 -18 35 -3 31 -2 33 12 20 8 -8 16 -24 18 -35z m-662 -3 c25 -8 47 -16 49 -18 8 -7 39 -134 33 -134 -17 1 -130 122 -157 169 -6 11 -4 13 11 7 10 -5 39 -15 64 -24z m460 8 c8 -5 11 -10 5 -10 -5 0 -17 5 -25 10 -8 5 -10 10 -5 10 6 0 17 -5 25 -10z m20 -42 c0 -16 -3 -19 -11 -11 -6 6 -8 16 -5 22 11 17 16 13 16 -11z m105 4 c0 -18 -20 -15 -23 4 -3 10 1 15 10 12 7 -3 13 -10 13 -16z m-37 -20 c2 -12 -1 -22 -7 -22 -6 0 -11 7 -11 15 0 8 -4 15 -10 15 -5 0 -10 4 -10 9 0 19 35 3 38 -17z m-1318 10 c0 -5 -28 -55 -62 -112 -79 -130 -118 -164 -191 -164 -29 -1 -65 3 -81 7 l-29 8 54 36 c30 19 60 39 66 45 7 6 35 11 62 12 28 1 56 7 63 14 11 11 8 11 -15 3 -39 -15 -87 -14 -87 2 0 15 27 57 48 75 10 7 11 12 4 12 -7 0 -28 -24 -47 -54 -36 -57 -62 -79 -132 -115 -48 -24 -58 -16 -15 12 24 16 25 18 5 14 -29 -6 -29 -2 5 39 93 116 86 111 190 134 53 12 108 25 122 30 33 11 40 12 40 2z m581 -9 c13 -16 12 -17 -3 -4 -10 7 -18 15 -18 17 0 8 8 3 21 -13z m509 -16 l84 -13 33 -134 c18 -74 33 -143 33 -152 0 -18 -11 -23 -23 -11 -4 3 -47 16 -95 29 -95 24 -162 53 -201 88 -14 13 -25 17 -28 10 -2 -6 -11 -20 -19 -30 -14 -18 -15 -18 -5 3 16 32 13 42 -8 38 -18 -3 -19 -1 -9 21 13 27 26 32 24 8 0 -9 5 -19 12 -21 11 -4 10 2 -1 28 -7 19 -13 39 -11 44 1 6 5 22 8 38 8 33 19 35 32 5 6 -13 8 -16 6 -8 -2 8 -6 30 -9 49 l-6 34 49 -6 c27 -4 87 -13 134 -20z m1891 0 c-10 -9 -11 -8 -5 6 3 10 9 15 12 12 3 -3 0 -11 -7 -18z m-1814 7 c-3 -3 -12 -4 -19 -1 -8 3 -5 6 6 6 11 1 17 -2 13 -5z m79 -40 c22 -23 34 -30 34 -20 0 29 17 17 40 -26 13 -26 19 -33 16 -18 -3 14 -8 36 -12 50 -4 21 3 16 45 -28 50 -52 51 -55 51 -113 0 -150 -78 -191 -142 -74 -30 55 -36 54 -13 -2 8 -20 13 -38 11 -40 -8 -8 -27 37 -30 70 -1 18 -12 64 -23 102 -43 142 -38 164 23 99z m221 30 c-3 -3 -12 -4 -19 -1 -8 3 -5 6 6 6 11 1 17 -2 13 -5z m59 -20 c-3 -7 -1 -16 4 -19 19 -12 11 -45 -10 -45 -16 0 -20 7 -20 36 0 21 -4 33 -10 29 -5 -3 -10 -2 -10 3 0 5 12 10 26 10 17 0 24 -5 20 -14z m1444 3 c0 -2 -15 -16 -32 -33 l-33 -29 29 33 c28 30 36 37 36 29z m-2202 -32 c-3 -3 -9 2 -12 12 -6 14 -5 15 5 6 7 -7 10 -15 7 -18z m1338 -7 c14 -17 15 -20 2 -9 -9 7 -22 10 -28 6 -13 -8 -32 4 -25 16 10 15 31 10 51 -13z m-1275 -34 c21 -23 21 -25 4 -16 -28 14 -55 11 -77 -11 -44 -42 -118 -143 -118 -159 0 -10 -5 -18 -11 -18 -29 0 47 134 108 191 24 21 49 39 56 39 7 0 24 -12 38 -26z m2049 -19 c-7 -8 -17 -15 -23 -15 -6 0 -2 7 9 15 25 19 30 19 14 0z m-1420 -34 c0 -17 -5 -33 -12 -37 -8 -5 -9 2 -5 24 4 20 2 32 -6 36 -7 2 -4 5 6 5 12 1 17 -7 17 -28z m110 -10 c0 -22 -6 -46 -13 -53 -7 -7 -18 -26 -26 -43 l-13 -30 -19 24 c-24 29 -28 121 -5 101 8 -6 17 -26 19 -43 3 -24 4 -22 4 10 -1 43 15 73 39 73 10 0 14 -13 14 -39z m54 -40 c-6 -52 -9 -59 -21 -49 -17 13 -11 82 9 105 17 21 20 10 12 -56z m1206 44 c-7 -8 -17 -15 -23 -15 -6 0 -2 7 9 15 25 19 30 19 14 0z m-940 -9 c0 -8 -7 -16 -15 -20 -12 -4 -13 -2 -2 14 14 24 17 25 17 6z m70 -1 c0 -3 -8 -15 -19 -26 -16 -17 -19 -18 -24 -5 -4 10 -1 16 8 16 8 0 15 5 15 10 0 6 5 10 10 10 6 0 10 -2 10 -5z m-1150 -9 c0 -2 -8 -10 -17 -17 -16 -13 -17 -12 -4 4 13 16 21 21 21 13z m-596 -28 c23 -32 4 -60 -37 -56 -25 2 -33 8 -35 26 -2 13 -1 30 2 38 8 22 53 17 70 -8z m616 -8 c-6 -11 -13 -20 -16 -20 -2 0 0 9 6 20 6 11 13 20 16 20 2 0 0 -9 -6 -20z m827 -27 c-3 -10 -5 -2 -5 17 0 19 2 27 5 18 2 -10 2 -26 0 -35z m-1533 -8 c5 -22 4 -26 -4 -15 -5 8 -10 24 -10 34 0 26 6 18 14 -19z m1761 25 c-7 -11 -65 -43 -65 -36 0 4 62 45 68 46 2 0 0 -5 -3 -10z m-1185 -29 c-6 -12 -15 -21 -21 -21 -10 0 -5 13 14 38 15 19 20 7 7 -17z m373 -41 c9 0 17 -4 17 -10 0 -14 -2 -13 -65 15 -31 13 -64 26 -73 27 -20 3 -41 20 -36 29 2 3 34 -9 71 -27 37 -18 76 -33 86 -34z m-323 40 c0 -20 -51 -91 -60 -85 -16 10 -12 35 5 35 8 0 14 3 13 8 -3 10 25 52 34 52 5 0 8 -5 8 -10z m931 -23 c-10 -9 -11 -8 -5 6 3 10 9 15 12 12 3 -3 0 -11 -7 -18z m112 6 c7 -7 -22 -32 -38 -32 -5 0 -2 4 8 10 9 6 15 14 12 20 -7 10 8 13 18 2z m-1023 -23 c-6 -11 -13 -20 -16 -20 -2 0 0 9 6 20 6 11 13 20 16 20 2 0 0 -9 -6 -20z m828 -13 c21 -22 21 -25 7 -54 -9 -17 -22 -34 -30 -37 -17 -6 -21 9 -5 19 12 8 13 45 1 45 -12 0 -23 29 -15 41 8 14 19 11 42 -14z m-93 -5 c-3 -3 -11 0 -18 7 -9 10 -8 11 6 5 10 -3 15 -9 12 -12z m372 -5 c9 -18 7 -28 -11 -49 -11 -15 -29 -38 -39 -53 -26 -37 -33 -23 -14 27 9 24 21 55 26 71 13 33 24 34 38 4z m-147 6 c-8 -3 -24 -10 -35 -15 -20 -9 -20 -9 -1 6 11 9 27 16 35 15 14 0 14 -1 1 -6z m-552 -12 c11 -6 10 -10 -4 -15 -10 -4 -24 0 -33 9 -14 13 -13 15 4 15 11 0 26 -4 33 -9z m482 -6 c0 -8 -2 -15 -4 -15 -2 0 -6 7 -10 15 -3 8 -1 15 4 15 6 0 10 -7 10 -15z m-920 -9 c0 -2 -8 -10 -17 -17 -16 -13 -17 -12 -4 4 13 16 21 21 21 13z m520 -6 c13 -9 13 -10 0 -9 -8 0 -24 4 -35 9 l-20 9 20 0 c11 0 27 -4 35 -9z m275 0 c-3 -5 -13 -10 -21 -10 -8 0 -14 5 -14 10 0 6 9 10 21 10 11 0 17 -4 14 -10z m-1315 -6 c0 -3 -8 -19 -17 -35 -20 -33 -43 -38 -43 -9 0 31 -20 24 -21 -7 0 -28 -1 -28 -11 -5 -9 18 -7 25 12 42 21 18 80 28 80 14z m1095 -4 c3 -6 -1 -7 -9 -4 -18 7 -21 14 -7 14 6 0 13 -4 16 -10z m-1031 -25 c15 -41 -37 -92 -61 -59 -10 13 -9 22 3 45 16 31 48 39 58 14z m473 -1 c-3 -3 -12 -4 -19 -1 -8 3 -5 6 6 6 11 1 17 -2 13 -5z m1216 -31 l32 6 -29 -13 c-33 -15 -58 -2 -48 24 5 12 7 11 10 -4 3 -14 10 -17 35 -13z m-285 -19 c-10 -10 -28 6 -28 24 0 15 1 15 17 -1 9 -9 14 -19 11 -23z m-958 14 c0 -4 -9 -8 -21 -8 -11 0 -18 4 -15 8 3 5 12 9 21 9 8 0 15 -4 15 -9z m790 -2 c0 -3 -4 -8 -10 -11 -5 -3 -10 -1 -10 4 0 6 5 11 10 11 6 0 10 -2 10 -4z m-1355 -26 c3 -5 2 -10 -4 -10 -5 0 -13 5 -16 10 -3 6 -2 10 4 10 5 0 13 -4 16 -10z"/>
<path d="M3110 5061 c0 -6 4 -13 10 -16 6 -3 7 1 4 9 -7 18 -14 21 -14 7z"/>
<path d="M550 4990 c0 -8 5 -22 10 -30 9 -13 10 -13 10 0 0 8 -5 22 -10 30 -9 13 -10 13 -10 0z"/>
<path d="M510 4971 c0 -10 29 -36 34 -30 1 2 -6 12 -16 22 -10 9 -18 13 -18 8z"/>
<path d="M2322 4907 c-9 -10 -10 -17 -2 -22 5 -3 10 -3 10 2 0 4 4 2 9 -6 6 -9 11 -10 15 -2 4 6 3 11 -3 11 -5 0 -11 7 -13 17 -3 15 -4 15 -16 0z"/>
<path d="M2210 4770 c0 -5 7 -10 15 -10 8 0 15 5 15 10 0 6 -7 10 -15 10 -8 0 -15 -4 -15 -10z"/>
<path d="M2367 4719 c-17 -10 -57 -83 -57 -103 1 -21 55 -51 92 -51 88 0 107 102 28 148 -32 20 -39 20 -63 6z m66 -21 c9 -7 21 -27 26 -45 7 -25 5 -35 -10 -52 -41 -44 -127 -12 -114 42 7 28 48 67 69 67 7 0 20 -6 29 -12z"/>
<path d="M2369 4673 c-13 -16 -12 -17 4 -4 9 7 17 15 17 17 0 8 -8 3 -21 -13z"/>
<path d="M2406 4662 c-4 -7 -11 -10 -15 -8 -4 3 -8 -1 -8 -9 0 -17 6 -18 26 -6 7 5 11 15 9 22 -3 10 -6 10 -12 1z"/>
<path d="M2305 4449 c-9 -17 -15 -33 -13 -35 3 -2 12 12 21 31 21 43 13 47 -8 4z"/>
<path d="M3193 4737 c2 -27 11 -35 21 -18 3 4 -1 17 -8 27 -13 17 -14 17 -13 -9z"/>
<path d="M2635 4590 c3 -5 11 -10 16 -10 6 0 7 5 4 10 -3 6 -11 10 -16 10 -6 0 -7 -4 -4 -10z"/>
<path d="M2302 3750 c-7 -11 -12 -25 -12 -32 1 -7 8 0 16 15 18 33 14 46 -4 17z"/>
<path d="M2628 3703 c7 -3 16 -2 19 1 4 3 -2 6 -13 5 -11 0 -14 -3 -6 -6z"/>
<path d="M2840 3630 c8 -5 22 -9 30 -9 10 0 8 3 -5 9 -27 12 -43 12 -25 0z"/>
<path d="M2460 3191 c0 -5 5 -13 10 -16 6 -3 10 -2 10 4 0 5 -4 13 -10 16 -5 3 -10 2 -10 -4z"/>
<path d="M2712 3160 c-7 -11 -12 -28 -12 -37 1 -10 7 -3 16 16 16 38 14 50 -4 21z"/>
<path d="M2990 3090 c-6 -11 -8 -20 -6 -20 3 0 10 9 16 20 6 11 8 20 6 20 -3 0 -10 -9 -16 -20z"/>
<path d="M2731 2530 c-1 -67 16 -117 56 -158 l35 -37 -25 35 c-34 46 -48 84 -57 150 l-7 55 -2 -45z"/>
<path d="M2360 3992 c-72 -73 -72 -75 -21 -34 30 24 65 58 78 77 13 19 22 35 21 34 -2 0 -37 -35 -78 -77z"/>
<path d="M1698 3773 c6 -2 18 -2 25 0 6 3 1 5 -13 5 -14 0 -19 -2 -12 -5z"/>
<path d="M1538 3743 c6 -2 18 -2 25 0 6 3 1 5 -13 5 -14 0 -19 -2 -12 -5z"/>
<path d="M1608 3743 c7 -3 16 -2 19 1 4 3 -2 6 -13 5 -11 0 -14 -3 -6 -6z"/>
<path d="M1834 3282 c2 -4 26 -22 53 -40 l48 -33 -45 40 c-41 37 -69 54 -56 33z"/>
<path d="M2100 3030 c0 -5 5 -10 11 -10 5 0 7 5 4 10 -3 6 -8 10 -11 10 -2 0 -4 -4 -4 -10z"/>
<path d="M2140 2981 c-14 -4 -20 -9 -15 -13 6 -3 24 1 40 8 32 14 17 17 -25 5z"/>
<path d="M2386 2963 c-6 -14 -5 -15 5 -6 7 7 10 15 7 18 -3 3 -9 -2 -12 -12z"/>
<path d="M2354 2918 l-19 -23 23 19 c21 18 27 26 19 26 -2 0 -12 -10 -23 -22z"/>
<path d="M2416 2890 c-14 -22 -24 -40 -22 -40 9 0 59 70 54 75 -3 3 -17 -13 -32 -35z"/>
<path d="M2299 2863 c-13 -16 -12 -17 4 -4 9 7 17 15 17 17 0 8 -8 3 -21 -13z"/>
<path d="M2107 2859 c7 -7 15 -10 18 -7 3 3 -2 9 -12 12 -14 6 -15 5 -6 -5z"/>
<path d="M2206 2664 c-22 -28 -26 -38 -16 -47 8 -7 10 -8 7 -1 -3 6 8 27 24 47 17 20 27 37 22 37 -4 0 -21 -16 -37 -36z"/>
<path d="M2303 2625 c-3 -9 -3 -18 -1 -21 3 -3 8 4 11 16 6 23 -1 27 -10 5z"/>
<path d="M1666 3314 c-27 -24 -46 -48 -42 -51 3 -3 6 -1 6 5 0 7 5 12 11 12 5 0 7 -5 3 -12 -4 -6 -3 -9 2 -5 10 5 78 97 72 97 -2 -1 -25 -21 -52 -46z"/>
<path d="M1549 3183 c-13 -16 -12 -17 4 -4 16 13 21 21 13 21 -2 0 -10 -8 -17 -17z"/>
<path d="M1995 2640 c3 -30 10 -129 15 -220 13 -210 19 -257 36 -271 11 -9 13 -6 9 17 -12 76 -25 203 -36 344 -7 85 -16 162 -21 170 -5 9 -6 -6 -3 -40z"/>
<path d="M1630 2407 c0 -11 42 -62 93 -116 50 -53 147 -157 213 -231 99 -109 137 -144 200 -182 44 -26 88 -50 99 -54 11 -3 -16 16 -60 42 -44 27 -111 80 -150 119 -152 154 -351 369 -372 404 -16 25 -23 30 -23 18z"/>
<path d="M3076 1935 c-26 -49 -79 -106 -167 -178 -20 -17 -10 -12 26 11 74 48 131 110 157 169 28 63 18 62 -16 -2z"/>
<path d="M2450 1691 c33 -28 186 -114 165 -94 -15 15 -185 123 -193 123 -4 0 9 -14 28 -29z"/>
<path d="M2454 1566 c21 -17 165 -71 216 -80 19 -3 -19 13 -85 37 -66 24 -127 46 -135 51 -8 4 -7 1 4 -8z"/>
<path d="M3018 1373 c7 -3 16 -2 19 1 4 3 -2 6 -13 5 -11 0 -14 -3 -6 -6z"/>
<path d="M2732 1358 c2 -6 20 -23 39 -37 l34 -25 -34 37 c-37 39 -45 45 -39 25z"/>
<path d="M2833 1323 c9 -2 23 -2 30 0 6 3 -1 5 -18 5 -16 0 -22 -2 -12 -5z"/>
<path d="M2878 1103 c7 -3 16 -2 19 1 4 3 -2 6 -13 5 -11 0 -14 -3 -6 -6z"/>
<path d="M2978 1063 c7 -3 16 -2 19 1 4 3 -2 6 -13 5 -11 0 -14 -3 -6 -6z"/>
<path d="M2997 1034 c-4 -4 -7 -14 -7 -23 0 -11 3 -12 11 -4 6 6 10 16 7 23 -2 6 -7 8 -11 4z"/>
<path d="M3265 670 c3 -5 11 -10 16 -10 6 0 7 5 4 10 -3 6 -11 10 -16 10 -6 0 -7 -4 -4 -10z"/>
<path d="M3170 629 c0 -5 5 -7 10 -4 6 3 10 8 10 11 0 2 -4 4 -10 4 -5 0 -10 -5 -10 -11z"/>
<path d="M1080 545 c0 -18 19 -40 26 -32 4 4 0 15 -9 24 -9 10 -17 13 -17 8z"/>
<path d="M1362 518 c2 -6 10 -14 16 -16 7 -2 10 2 6 12 -7 18 -28 22 -22 4z"/>
<path d="M1360 475 c0 -8 4 -15 10 -15 5 0 7 7 4 15 -4 8 -8 15 -10 15 -2 0 -4 -7 -4 -15z"/>
<path d="M1336 419 c-11 -17 -12 -25 -3 -40 14 -23 21 -24 37 -4 11 13 10 14 -3 10 -8 -4 -18 -2 -22 4 -3 6 -2 11 2 11 5 0 9 9 10 20 2 25 -2 25 -21 -1z"/>
<path d="M1187 339 c7 -7 15 -10 18 -7 3 3 -2 9 -12 12 -14 6 -15 5 -6 -5z"/>
<path d="M2775 510 c3 -5 8 -10 11 -10 2 0 4 5 4 10 0 6 -5 10 -11 10 -5 0 -7 -4 -4 -10z"/>
<path d="M1688 443 c7 -3 16 -2 19 1 4 3 -2 6 -13 5 -11 0 -14 -3 -6 -6z"/>
<path d="M1648 433 c7 -3 16 -2 19 1 4 3 -2 6 -13 5 -11 0 -14 -3 -6 -6z"/>
<path d="M1592 365 c-7 -8 -9 -15 -4 -15 5 0 15 7 22 15 16 19 -1 19 -18 0z"/>
<path d="M1580 270 l-35 -7 37 -2 c20 0 40 4 43 9 7 11 7 11 -45 0z"/>
<path d="M1508 253 c7 -3 16 -2 19 1 4 3 -2 6 -13 5 -11 0 -14 -3 -6 -6z"/>
<path d="M2741 254 c0 -11 3 -14 6 -6 3 7 2 16 -1 19 -3 4 -6 -2 -5 -13z"/>
<path d="M1941 255 c0 -5 6 -19 14 -29 8 -11 15 -15 15 -10 0 6 -7 19 -15 30 -8 10 -14 15 -14 9z"/>
<path d="M2012 68 c-16 -16 -15 -28 3 -28 8 0 15 9 15 20 0 23 -2 24 -18 8z"/>
<path d="M1303 3457 c-22 -10 -31 -27 -15 -27 12 0 48 28 42 33 -3 2 -15 0 -27 -6z"/>
<path d="M1203 3433 c15 -2 37 -2 50 0 12 2 0 4 -28 4 -27 0 -38 -2 -22 -4z"/>
<path d="M1102 3257 c-24 -28 -52 -104 -51 -137 1 -32 2 -31 14 17 7 29 22 71 33 93 21 42 21 48 4 27z"/>
<path d="M280 3039 c-17 -13 -18 -17 -5 -10 33 17 51 31 40 31 -5 0 -21 -10 -35 -21z"/>
<path d="M1070 3036 c0 -16 41 -86 51 -86 11 0 8 5 -28 59 -13 19 -23 31 -23 27z"/>
<path d="M229 3003 c-13 -16 -12 -17 4 -4 9 7 17 15 17 17 0 8 -8 3 -21 -13z"/>
<path d="M84 2927 c-48 -55 -54 -68 -14 -30 24 23 42 45 39 48 -3 3 -14 -5 -25 -18z"/>
<path d="M183 2785 c0 -33 2 -45 4 -27 2 18 2 45 0 60 -2 15 -4 0 -4 -33z"/>
<path d="M502 2542 c-13 -4 -23 -10 -23 -14 1 -5 1 -12 1 -16 0 -11 157 -35 170 -27 6 3 10 11 10 17 0 7 -5 7 -14 -1 -11 -9 -15 -8 -20 5 -9 24 -8 26 14 19 11 -3 20 -2 20 3 0 19 -106 28 -158 14z"/>
<path d="M415 2506 c-16 -7 -57 -39 -90 -71 -55 -52 -55 -53 -7 -12 29 25 73 53 97 63 25 9 45 21 45 25 0 12 -9 11 -45 -5z"/>
<path d="M11 2423 c14 -20 69 -69 69 -61 0 2 -19 21 -42 43 -23 22 -35 30 -27 18z"/>
<path d="M509 2429 c-11 -7 -10 -9 4 -9 9 0 17 -5 17 -10 0 -6 -6 -10 -12 -9 -29 3 -38 -2 -37 -23 1 -18 2 -19 6 -5 7 29 28 13 28 -21 0 -34 18 -38 49 -13 19 16 22 91 4 92 -7 0 -20 2 -29 4 -9 1 -23 -1 -30 -6z"/>
<path d="M470 2342 c0 -4 4 -13 9 -20 7 -11 9 -11 14 1 3 9 -1 18 -9 21 -8 3 -14 2 -14 -2z"/>
<path d="M71 2294 c0 -11 3 -14 6 -6 3 7 2 16 -1 19 -3 4 -6 -2 -5 -13z"/>
<path d="M538 2233 c-16 -4 -43 -58 -39 -77 1 -5 -7 -6 -18 -3 -14 3 -18 1 -14 -9 6 -17 37 -18 66 -3 19 11 25 7 54 -26 44 -51 61 -38 44 31 -20 77 -44 99 -93 87z"/>
<path d="M126 2007 c3 -10 9 -15 12 -12 3 3 0 11 -7 18 -10 9 -11 8 -5 -6z"/>
<path d="M0 2004 c0 -6 21 -30 47 -54 l47 -45 -44 50 c-24 28 -45 52 -47 54 -2 2 -3 0 -3 -5z"/>
<path d="M140 1976 c0 -2 8 -10 18 -17 15 -13 16 -12 3 4 -13 16 -21 21 -21 13z"/>
<path d="M190 1915 c13 -14 26 -25 28 -25 3 0 -5 11 -18 25 -13 14 -26 25 -28 25 -3 0 5 -11 18 -25z"/>
<path d="M100 1905 c0 -7 81 -47 86 -43 2 3 -17 14 -41 26 -25 12 -45 20 -45 17z"/>
<path d="M220 1615 c-17 -10 -20 -14 -9 -15 9 0 22 7 29 15 15 18 12 18 -20 0z"/>
<path d="M64 1276 c-9 -9 -3 -21 23 -50 19 -21 38 -35 41 -31 4 3 0 10 -7 14 -7 5 -9 11 -4 14 5 3 16 -3 23 -14 15 -19 40 -26 40 -10 0 5 -7 12 -16 15 -8 3 -12 11 -8 17 4 8 3 9 -4 5 -7 -4 -12 -1 -12 7 0 8 -11 18 -25 21 -14 4 -25 11 -25 16 0 14 -13 12 -26 -4z m46 -47 c0 -6 -4 -7 -10 -4 -5 3 -10 11 -10 16 0 6 5 7 10 4 6 -3 10 -11 10 -16z"/>
<path d="M278 1048 c5 -5 16 -8 23 -6 8 3 3 7 -10 11 -17 4 -21 3 -13 -5z"/>
<path d="M386 927 c3 -10 9 -15 12 -12 3 3 0 11 -7 18 -10 9 -11 8 -5 -6z"/>
<path d="M400 891 c-8 -17 -7 -20 10 -18 11 1 22 7 24 14 3 8 -1 10 -11 6 -11 -4 -14 -2 -9 5 4 7 5 12 2 12 -3 0 -10 -9 -16 -19z"/>
<path d="M455 839 c-4 -6 -14 -8 -22 -4 -14 5 -14 3 -2 -11 9 -11 15 -12 17 -4 3 7 11 5 25 -7 18 -15 20 -15 8 -1 -7 9 -10 22 -6 28 3 5 2 10 -4 10 -5 0 -13 -5 -16 -11z"/>
<path d="M508 763 c-14 -16 -13 -20 8 -43 13 -13 24 -19 24 -13 0 6 -6 13 -12 16 -10 3 -10 7 -1 17 8 9 13 7 19 -11 4 -13 8 -28 8 -34 1 -14 27 -47 51 -65 16 -11 17 -11 8 0 -16 18 -17 34 -1 24 7 -4 8 -3 4 4 -4 6 -14 9 -24 6 -9 -3 -6 2 8 10 21 13 22 15 6 16 -12 0 -16 5 -12 16 3 9 2 12 -5 9 -6 -4 -8 -13 -5 -21 3 -7 1 -16 -4 -19 -13 -8 -19 18 -8 38 6 13 5 17 -7 17 -9 0 -14 3 -12 8 3 4 -3 15 -13 25 -16 16 -18 16 -32 0z"/>
<path d="M130 513 c0 -5 13 -29 29 -54 25 -41 79 -79 110 -79 24 0 9 17 -34 38 -25 12 -57 39 -75 63 -16 23 -30 38 -30 32z"/>
<path d="M4863 479 c-17 -48 -16 -58 3 -31 8 12 14 32 12 44 -2 18 -5 15 -15 -13z"/>
<path d="M355 353 c9 -21 23 -45 31 -53 10 -9 7 -1 -5 20 -12 19 -21 43 -21 53 0 9 -5 17 -10 17 -6 0 -4 -16 5 -37z"/>
<path d="M550 381 c0 -14 38 -33 50 -26 6 3 9 14 9 23 -1 15 -2 15 -6 0 -6 -22 -17 -23 -37 -2 -9 8 -16 11 -16 5z"/>
<path d="M779 378 c-3 -11 -5 -48 -3 -48 11 0 23 40 14 45 -5 3 -10 5 -11 3z"/>
<path d="M730 345 c-14 -8 -20 -14 -14 -15 5 0 19 7 30 15 24 18 16 19 -16 0z"/>
<path d="M608 313 c7 -3 16 -2 19 1 4 3 -2 6 -13 5 -11 0 -14 -3 -6 -6z"/>
<path d="M1095 264 c6 -5 23 -20 40 -34 29 -24 29 -24 10 -2 -11 13 -29 28 -40 34 -11 6 -15 6 -10 2z"/>
<path d="M555 180 c16 -8 8 -9 -33 -7 -28 1 -52 -1 -52 -5 0 -11 100 -9 125 2 13 6 15 9 5 9 -8 1 -26 4 -40 6 -22 5 -23 4 -5 -5z"/>
<path d="M1300 180 c0 -5 5 -10 10 -10 6 0 10 5 10 10 0 6 -4 10 -10 10 -5 0 -10 -4 -10 -10z"/>
<path d="M438 173 c7 -3 16 -2 19 1 4 3 -2 6 -13 5 -11 0 -14 -3 -6 -6z"/>
<path d="M710 169 c0 -5 5 -7 10 -4 6 3 10 8 10 11 0 2 -4 4 -10 4 -5 0 -10 -5 -10 -11z"/>
<path d="M1395 170 c3 -5 11 -10 16 -10 6 0 7 5 4 10 -3 6 -11 10 -16 10 -6 0 -7 -4 -4 -10z"/>
<path d="M1000 120 c-9 -6 -10 -10 -3 -10 6 0 15 5 18 10 8 12 4 12 -15 0z"/>
<path d="M636 44 c-5 -14 -4 -15 9 -4 17 14 19 20 6 20 -5 0 -12 -7 -15 -16z"/>
<path d="M830 41 c0 -4 7 -16 15 -27 9 -12 14 -14 15 -5 0 9 8 12 25 9 41 -8 28 9 -15 20 -22 5 -40 7 -40 3z"/>
<path d="M1678 3 c6 -2 18 -2 25 0 6 3 1 5 -13 5 -14 0 -19 -2 -12 -5z"/>
</g>
</svg>