<svg xmlns="http://www.w3.org/2000/svg" version="1.0" width="1024.000000pt" height="1280.000000pt" viewBox="0 0 1024.000000 1280.000000" preserveAspectRatio="xMidYMid meet">

<g transform="translate(0.000000,1280.000000) scale(0.100000,-0.100000)" fill="#000000" stroke="none">
<path d="M4700 10424 c-283 -29 -581 -117 -730 -215 -183 -122 -348 -295 -422 -444 -60 -119 -91 -279 -90 -460 0 -124 23 -360 43 -455 6 -25 14 -74 19 -110 5 -36 18 -108 29 -160 12 -52 21 -124 21 -160 0 -61 -2 -66 -29 -82 -51 -29 -66 -63 -65 -149 1 -61 10 -101 44 -200 23 -68 53 -146 67 -173 14 -27 31 -66 38 -85 7 -20 43 -97 79 -172 73 -150 83 -159 169 -164 54 -4 50 1 128 -150 34 -65 96 -158 126 -190 10 -11 53 -63 95 -115 41 -52 99 -117 127 -145 33 -31 51 -58 51 -73 0 -13 10 -71 21 -129 14 -70 18 -107 11 -112 -5 -3 -59 -19 -119 -35 -128 -34 -318 -93 -347 -108 -12 -6 -32 -20 -46 -33 -14 -12 -62 -35 -108 -50 -45 -16 -162 -71 -260 -122 -97 -52 -310 -159 -472 -239 -162 -80 -313 -160 -336 -179 -68 -56 -78 -95 -72 -283 4 -142 4 -153 -9 -112 -7 24 -16 98 -20 164 l-8 119 -28 -41 c-36 -51 -54 -104 -61 -173 l-6 -54 15 63 c8 35 24 84 36 110 21 45 22 46 29 22 5 -14 8 -52 9 -86 2 -117 68 -300 159 -437 43 -65 37 -23 -12 76 -61 122 -78 208 -79 382 -1 161 6 182 75 238 52 41 60 45 358 191 129 63 294 147 365 186 156 86 309 157 356 167 l33 6 -22 -29 c-13 -16 -49 -65 -81 -109 -31 -44 -107 -127 -167 -183 -103 -98 -108 -105 -89 -118 10 -8 30 -14 44 -15 64 -1 62 -15 -6 -36 -37 -12 -80 -24 -95 -27 l-28 -6 0 -98 c0 -159 -53 -391 -180 -792 -99 -310 -94 -287 -94 -465 0 -174 12 -255 49 -339 23 -51 131 -247 180 -326 12 -19 70 -129 130 -245 184 -357 458 -858 490 -895 25 -29 77 -187 135 -405 88 -335 223 -669 349 -868 29 -47 47 -85 44 -96 -8 -30 16 -242 33 -294 17 -51 40 -66 31 -19 -32 161 -33 402 -1 512 8 30 24 93 35 140 41 181 54 211 111 260 131 111 479 456 566 560 52 63 112 133 131 156 50 56 72 82 189 222 335 401 382 460 548 687 60 82 143 195 184 251 41 56 125 169 185 253 61 83 136 185 167 228 65 88 156 231 260 408 107 181 326 598 363 689 18 45 65 149 104 233 39 84 73 170 77 192 l6 39 -68 40 c-38 23 -90 47 -117 54 -26 7 -46 17 -44 22 2 5 32 21 68 34 55 22 81 26 186 26 68 1 123 2 123 4 0 10 -85 124 -119 160 -23 24 -41 45 -41 47 0 3 35 -12 78 -31 42 -20 178 -76 302 -125 222 -89 368 -151 545 -234 50 -24 101 -46 115 -50 38 -11 216 -112 293 -166 38 -26 73 -49 78 -51 5 -2 -4 -28 -20 -58 -16 -30 -51 -118 -77 -195 l-49 -140 0 -175 c0 -136 4 -184 16 -215 19 -48 45 -54 41 -10 -17 193 15 357 108 540 33 66 69 131 79 144 18 24 20 24 44 8 28 -18 120 -152 160 -232 32 -65 91 -232 111 -315 19 -81 46 -284 46 -353 0 -65 9 -97 25 -97 23 0 0 285 -37 445 -51 227 -208 529 -298 575 l-39 20 -25 -33 c-46 -60 -134 -242 -161 -332 -15 -49 -31 -121 -36 -160 -6 -57 -7 -45 -5 65 3 121 7 145 36 230 47 139 80 221 101 252 11 14 19 28 19 31 0 15 -330 217 -380 232 -14 4 -65 27 -115 50 -76 36 -226 103 -300 135 -11 5 -108 44 -215 86 -107 42 -249 102 -315 131 -66 30 -135 59 -153 64 -17 6 -67 36 -110 68 -109 83 -402 235 -572 299 -73 27 -76 29 -105 87 -46 91 -97 163 -166 233 -102 104 -214 169 -300 175 -40 3 -45 6 -50 33 -4 16 -7 51 -8 77 0 27 -5 56 -11 66 -7 14 -1 40 24 102 19 46 44 137 57 202 l22 117 40 0 c99 0 182 115 248 345 64 218 63 212 63 390 -1 142 -4 176 -18 207 -25 52 -97 115 -139 123 -41 8 -40 5 -57 225 -6 74 -13 142 -15 150 -3 8 -9 60 -15 115 -5 55 -17 129 -25 165 -8 36 -19 99 -25 140 -21 150 -61 245 -184 445 -85 139 -271 286 -451 357 -27 11 -63 26 -80 33 -111 49 -378 112 -570 134 -110 13 -171 12 -345 -5z m870 -775 c30 -5 74 -9 98 -9 78 0 200 -83 240 -163 11 -23 36 -96 55 -162 36 -125 44 -145 158 -386 37 -81 73 -167 80 -193 6 -25 15 -49 20 -52 9 -5 13 -54 5 -54 -2 0 -111 37 -242 82 l-239 81 -155 4 c-126 4 -173 1 -250 -15 -92 -19 -260 -88 -305 -125 -76 -62 -118 -87 -145 -87 -17 0 -57 -7 -90 -17 l-60 -16 -107 45 c-137 58 -198 72 -298 72 -165 -2 -346 -75 -496 -200 l-77 -64 15 47 c24 78 1 373 -46 573 -27 116 -4 267 55 361 26 42 109 114 148 129 39 14 136 12 252 -5 136 -20 195 -19 376 9 109 18 196 38 289 70 237 80 330 96 519 89 80 -3 170 -9 200 -14z m135 -924 c93 -17 139 -35 149 -60 14 -37 27 -204 21 -264 -14 -127 -61 -208 -148 -252 -75 -39 -419 -57 -490 -26 -102 44 -181 146 -217 279 -27 99 -18 119 85 207 57 48 201 105 315 124 59 10 204 6 285 -8z m803 -101 c51 -32 74 -88 85 -202 16 -173 -13 -348 -95 -577 -49 -138 -119 -225 -182 -225 l-33 0 -6 178 c-7 176 -10 212 -42 392 -30 166 -13 270 58 373 20 30 80 72 113 79 27 7 75 -2 102 -18z m-351 -36 c92 -26 102 -37 78 -86 l-19 -37 -4 28 c-2 15 -8 27 -14 27 -12 0 -3 -271 12 -350 5 -25 5 -62 -1 -85 -5 -22 -18 -83 -29 -135 -35 -165 -77 -229 -219 -342 -63 -50 -80 -58 -115 -58 -49 0 -134 21 -220 54 -180 69 -339 108 -426 105 -96 -4 -258 -21 -325 -35 -187 -40 -369 -135 -483 -253 -71 -73 -75 -75 -118 -73 -24 1 -57 8 -73 16 -43 23 -155 149 -219 249 -31 49 -73 114 -94 145 -20 31 -50 98 -67 149 -29 84 -31 100 -29 205 3 110 3 112 15 68 20 -72 63 -148 114 -204 40 -44 60 -56 130 -81 75 -26 95 -29 201 -28 140 2 211 15 294 54 126 59 192 181 219 401 7 56 8 58 44 68 42 12 111 13 128 2 6 -4 28 -39 49 -77 50 -93 75 -129 125 -182 77 -80 132 -93 350 -81 177 10 248 21 307 49 49 24 115 86 138 131 28 53 44 153 44 271 l0 118 68 -7 c37 -3 100 -15 139 -26z m-1669 -58 c24 -6 82 -29 129 -51 l85 -41 -4 -117 c-4 -102 -8 -125 -37 -192 -38 -91 -87 -151 -138 -172 -69 -27 -174 -39 -303 -35 -136 4 -179 18 -241 77 -55 53 -109 211 -109 322 l0 56 58 45 c67 53 142 93 215 113 58 17 266 13 345 -5z m-775 -233 c20 -15 40 -27 46 -27 7 0 11 -53 11 -158 0 -210 38 -423 110 -609 17 -43 30 -81 30 -85 0 -9 -69 -2 -103 11 -15 6 -33 28 -47 58 -12 26 -39 84 -60 128 -162 339 -225 543 -199 638 5 20 22 46 37 58 39 30 126 24 175 -14z m1686 -788 c49 -14 79 -52 112 -139 17 -46 18 -59 8 -112 -7 -32 -21 -74 -33 -91 -28 -42 -82 -77 -118 -77 -32 0 -110 37 -170 80 -96 70 -216 90 -305 50 -45 -20 -150 -95 -183 -131 -26 -29 -74 -39 -106 -22 -133 68 -137 234 -7 323 44 30 167 70 216 70 23 0 87 9 142 21 236 48 352 56 444 28z m775 -549 c8 -58 23 -130 32 -160 18 -60 71 -171 111 -231 l25 -38 -34 -63 c-115 -211 -209 -360 -303 -478 -33 -42 -75 -96 -93 -120 -172 -235 -313 -417 -368 -473 -76 -77 -145 -114 -270 -146 -201 -51 -374 -137 -485 -239 l-79 -74 0 52 c0 116 -54 313 -130 475 -37 78 -38 83 -39 202 0 67 -10 175 -20 240 -11 65 -25 186 -31 268 -14 195 -37 371 -61 465 -10 41 -16 76 -14 78 2 3 44 -25 92 -61 150 -111 220 -142 458 -203 105 -27 242 -25 330 5 116 39 236 91 279 120 23 15 73 45 111 66 91 50 103 59 213 168 75 74 108 117 170 221 l77 128 6 -48 c4 -27 14 -96 23 -154z m174 -12 c123 -61 255 -205 337 -368 l28 -54 -16 -97 c-20 -123 -84 -319 -152 -469 -29 -63 -76 -171 -104 -240 -78 -188 -140 -314 -200 -409 -29 -47 -63 -106 -76 -131 -19 -37 -98 -169 -166 -277 -21 -35 -29 -28 -29 25 -1 94 -70 218 -195 347 -74 77 -117 105 -165 108 -37 2 -38 16 -4 48 15 13 107 132 205 264 98 132 196 260 217 285 115 135 328 505 358 620 34 133 -2 281 -81 330 -29 18 -41 20 -58 12 -22 -10 -21 -11 4 -11 55 -2 109 -85 124 -188 7 -52 -9 -158 -25 -168 -24 -15 -151 301 -136 340 3 8 1 17 -4 20 -6 4 -10 18 -10 32 0 24 2 25 41 20 22 -3 71 -20 107 -39z m472 -462 c82 -29 411 -196 491 -249 121 -81 319 -273 319 -310 0 -8 -19 -12 -53 -12 -79 1 -183 -22 -259 -57 -71 -32 -85 -48 -43 -48 38 0 115 -29 178 -68 48 -29 56 -39 51 -56 -13 -44 -76 -191 -114 -267 -22 -43 -54 -113 -71 -156 -16 -42 -90 -189 -163 -327 -209 -395 -349 -624 -523 -857 -60 -79 -137 -185 -172 -234 -36 -50 -121 -166 -190 -260 -69 -93 -150 -204 -180 -245 -99 -135 -432 -541 -656 -800 -50 -58 -118 -139 -151 -180 -59 -72 -564 -570 -564 -555 0 33 144 357 225 505 26 47 101 186 167 310 67 124 134 249 150 279 16 30 72 125 124 212 52 87 139 247 193 356 54 109 211 424 350 701 220 439 331 678 331 709 0 5 12 38 26 74 25 63 179 542 253 789 21 69 44 159 51 200 7 41 36 149 65 240 30 91 59 203 66 248 7 45 16 82 21 82 5 0 40 -11 78 -24z m-2440 -52 c0 -3 -26 -38 -58 -77 -152 -187 -287 -427 -332 -591 -12 -43 -24 -120 -27 -171 -6 -91 -6 -92 -40 -115 -38 -26 -77 -78 -117 -157 -26 -51 -126 -314 -161 -423 -10 -30 -38 -102 -63 -160 -24 -58 -78 -206 -120 -330 l-75 -225 -1 -125 c0 -69 4 -133 9 -142 7 -12 10 24 10 120 0 88 5 154 14 185 15 54 31 47 31 -13 0 -60 67 -371 100 -462 29 -85 156 -378 227 -528 40 -84 105 -240 133 -315 10 -27 36 -95 58 -150 22 -55 43 -111 47 -125 6 -22 5 -22 -13 5 -21 33 -144 255 -280 505 -46 85 -116 218 -154 295 -39 77 -109 208 -155 290 -47 83 -102 179 -122 215 -75 133 -101 241 -101 427 0 143 14 213 94 463 122 383 186 659 186 800 l0 88 33 7 c17 4 65 18 105 32 72 26 88 46 41 51 -13 1 -43 5 -66 8 l-42 5 128 127 c88 87 151 161 202 237 88 129 100 137 279 189 69 20 145 43 170 50 54 17 60 18 60 10z m74 -36 c3 -24 12 -129 21 -235 8 -106 22 -227 31 -270 17 -89 31 -323 19 -323 -5 0 -17 7 -27 17 -31 28 -32 6 -2 -25 49 -49 142 -283 170 -430 16 -84 19 -212 5 -212 -20 0 -198 128 -251 180 -31 30 -89 102 -130 160 -72 102 -162 203 -187 211 -18 6 -43 139 -43 227 0 114 31 248 76 329 92 166 274 413 305 413 4 0 10 -19 13 -42z m2101 -510 c-4 -24 -34 -126 -67 -228 -33 -102 -88 -275 -123 -385 -70 -224 -138 -418 -192 -545 -55 -129 -709 -1433 -768 -1530 -108 -178 -195 -331 -280 -490 -48 -91 -132 -247 -187 -347 -161 -296 -266 -552 -317 -774 -12 -52 -31 -123 -42 -158 -10 -35 -19 -80 -19 -101 0 -22 -4 -41 -9 -45 -16 -9 -85 117 -164 300 -120 274 -130 307 -123 395 11 137 37 333 61 465 13 72 29 170 35 219 6 48 17 125 26 170 22 126 82 574 99 751 42 423 100 695 201 949 53 130 152 284 237 367 34 32 56 59 50 59 -29 0 -182 -189 -246 -305 -25 -44 -91 -218 -121 -316 -40 -131 -96 -379 -96 -425 0 -22 -4 -65 -10 -95 -5 -30 -16 -126 -25 -214 -19 -194 -79 -652 -100 -755 -8 -41 -21 -130 -30 -198 -8 -68 -19 -140 -25 -161 -15 -57 -58 -346 -66 -446 l-7 -90 -23 70 c-37 111 -29 287 32 700 14 99 32 232 40 295 7 63 16 126 19 140 2 14 12 106 20 205 9 99 20 205 25 235 5 30 21 145 35 255 38 303 97 592 150 737 62 167 110 243 236 369 86 87 120 114 185 147 98 49 247 108 308 122 83 18 179 60 231 100 58 45 99 51 136 21 l24 -19 -20 -22 c-54 -60 -168 -121 -435 -235 -114 -48 -226 -105 -208 -105 4 0 36 13 70 30 35 16 119 52 188 81 202 83 308 139 370 196 l57 52 50 -52 c79 -81 138 -159 169 -223 23 -47 30 -77 34 -149 6 -108 20 -119 64 -47 259 421 345 583 481 910 38 89 70 162 73 162 2 0 1 -19 -3 -42z m-2517 -206 c1 -48 10 -117 20 -154 17 -60 17 -68 3 -94 -8 -16 -22 -51 -32 -79 l-16 -50 -8 119 c-9 135 -2 278 14 319 6 15 12 27 14 27 2 0 4 -39 5 -88z m-63 -354 c7 -147 21 -218 44 -218 7 0 9 21 5 59 -4 35 -1 80 6 112 13 55 58 159 69 159 22 -1 100 -92 186 -217 83 -120 185 -211 358 -317 l28 -17 -29 -37 c-81 -102 -164 -312 -201 -510 -40 -212 -60 -328 -66 -382 -3 -30 -17 -134 -30 -230 -14 -96 -29 -229 -35 -295 -6 -66 -15 -158 -21 -205 -5 -47 -14 -130 -20 -185 -5 -55 -23 -186 -39 -290 -16 -105 -37 -263 -46 -353 -10 -89 -18 -161 -19 -160 -1 2 -26 80 -54 173 -29 94 -56 179 -61 190 -5 11 -25 62 -45 113 -73 191 -105 270 -153 382 -70 162 -161 367 -216 488 -26 57 -58 138 -72 180 -39 116 -84 345 -91 457 l-5 100 55 165 c30 91 73 206 95 255 22 50 50 122 63 160 40 127 117 330 153 406 32 69 107 169 126 169 4 0 11 -69 15 -152z"/>
<path d="M5700 8686 c0 -2 7 -6 15 -10 8 -3 15 -1 15 4 0 6 -7 10 -15 10 -8 0 -15 -2 -15 -4z"/>
<path d="M5748 8673 c7 -3 16 -2 19 1 4 3 -2 6 -13 5 -11 0 -14 -3 -6 -6z"/>
<path d="M5718 8603 c12 -2 32 -2 45 0 12 2 2 4 -23 4 -25 0 -35 -2 -22 -4z"/>
<path d="M6419 8499 c-21 -18 -21 -20 -4 -14 48 17 54 16 70 -9 16 -24 16 -33 5 -86 -15 -71 -7 -89 16 -35 31 74 30 101 -4 135 -36 35 -52 37 -83 9z"/>
<path d="M6319 8219 c-10 -6 -8 -9 9 -9 28 0 45 -39 40 -97 -4 -55 14 -57 26 -3 15 69 -32 137 -75 109z"/>
<path d="M6306 8064 c-10 -40 26 -144 50 -144 10 0 8 11 -6 46 -11 25 -20 63 -20 85 0 44 -15 52 -24 13z"/>
<path d="M3597 8243 c-15 -18 -20 -40 -18 -75 2 -31 17 -20 19 14 2 18 9 39 17 48 8 9 15 20 15 23 0 13 -17 7 -33 -10z"/>
<path d="M3713 7946 c4 -10 7 -26 7 -37 0 -10 5 -19 11 -19 15 0 6 63 -10 68 -10 3 -12 0 -8 -12z"/>
<path d="M3687 7884 c-13 -14 -7 -51 14 -78 26 -32 47 -35 26 -2 -9 13 -19 38 -24 55 -5 18 -12 29 -16 25z"/>
<path d="M4406 5938 c-14 -46 -26 -91 -25 -99 0 -7 13 29 29 81 16 52 27 96 25 98 -2 2 -15 -34 -29 -80z"/>
<path d="M4345 5699 c-4 -6 -5 -12 -2 -15 2 -3 7 2 10 11 7 17 1 20 -8 4z"/>
<path d="M4326 5644 c-4 -14 -5 -28 -3 -31 3 -2 8 8 11 23 4 14 5 28 3 31 -3 2 -8 -8 -11 -23z"/>
<path d="M4312 5580 c0 -14 2 -19 5 -12 2 6 2 18 0 25 -3 6 -5 1 -5 -13z"/>
<path d="M4295 5520 c-4 -17 -5 -34 -2 -36 2 -3 7 10 11 27 8 42 0 50 -9 9z"/>
<path d="M4282 5440 c0 -14 2 -19 5 -12 2 6 2 18 0 25 -3 6 -5 1 -5 -13z"/>
</g>
</svg>